<svg xmlns:mydata="http://www.w3.org/2000/svg" mydata:contrastcolor="ffffff" mydata:template="Contrast" mydata:presentation="2.5" mydata:layouttype="undefined" mydata:specialfontid="undefined" mydata:id1="724" mydata:id2="094" mydata:companyname="Mutaqina" mydata:companytagline="best path forward" version="1.1" xmlns="http://www.w3.org/2000/svg" xmlns:xlink="http://www.w3.org/1999/xlink" viewBox="0 0 550 470"><g fill="#e03e52" fill-rule="none" stroke="none" stroke-width="1" stroke-linecap="butt" stroke-linejoin="miter" stroke-miterlimit="10" stroke-dasharray="" stroke-dashoffset="0" font-family="none" font-weight="none" font-size="none" text-anchor="none" style="mix-blend-mode: normal"><g data-paper-data="{&quot;isGlobalGroup&quot;:true,&quot;bounds&quot;:{&quot;x&quot;:65,&quot;y&quot;:177.1801990706139,&quot;width&quot;:420,&quot;height&quot;:115.63960185877224}}"><g data-paper-data="{&quot;textHeightFactor&quot;:0.3052539604380849,&quot;isSecondaryText&quot;:true}" fill-rule="evenodd"><path d="M66.94034,290.52889c0,1.26535 1.02567,2.29091 2.29091,2.29091h411.53744c1.26535,0 2.29091,-1.02556 2.29091,-2.29091v-41.33854c0,-1.26519 -1.02556,-2.29091 -2.29091,-2.29091h-411.53744c-1.26524,0 -2.29091,1.02572 -2.29091,2.29091zM326.81655,269.78013c-0.00611,-0.18175 -0.02138,-0.31019 -0.04658,-0.38525v-0.15028c-0.01298,-0.06254 -0.01604,-0.13455 -0.00916,-0.21588c0.00611,-0.0814 -0.00382,-0.1596 -0.02825,-0.23474c-0.0252,-0.07514 -0.03818,-0.15334 -0.03818,-0.23474c0,-0.08133 -0.01222,-0.16586 -0.03742,-0.25345c-0.03716,-0.13771 -0.06847,-0.27229 -0.09393,-0.40373c-0.02495,-0.13145 -0.05625,-0.25976 -0.09393,-0.38495c-0.06262,-0.18778 -0.12142,-0.36303 -0.17793,-0.52576c-0.05651,-0.16273 -0.12218,-0.33172 -0.19702,-0.50698c-0.1008,-0.23787 -0.21916,-0.46009 -0.35738,-0.66658c-0.13745,-0.20659 -0.27516,-0.41002 -0.41313,-0.6103c-0.04964,-0.06262 -0.10615,-0.12829 -0.16876,-0.19717c-0.06262,-0.06888 -0.12524,-0.13455 -0.18785,-0.19717c-0.11225,-0.15021 -0.25658,-0.29728 -0.43145,-0.44123c-0.17564,-0.14402 -0.3444,-0.27231 -0.50705,-0.38495c-0.51316,-0.36303 -1.09582,-0.64787 -1.74644,-0.85436c-0.65138,-0.20656 -1.42113,-0.29736 -2.31,-0.27231c-0.02444,0.01252 -0.0588,0.01252 -0.10309,0c-0.04378,-0.01252 -0.07815,-0.01252 -0.10309,0l-0.56356,0.05636c-0.06262,0.01252 -0.12218,0.01879 -0.17793,0.01879c-0.05651,0 -0.11607,0.01252 -0.17869,0.03749c-0.17487,0.05009 -0.35356,0.09393 -0.53531,0.1315c-0.18098,0.03757 -0.35356,0.08759 -0.51622,0.15021c-0.70102,0.28789 -1.29589,0.63214 -1.78385,1.03274c-0.48796,0.4006 -0.92018,0.90132 -1.29589,1.50223c-0.12524,0.18778 -0.23138,0.38808 -0.3192,0.60083c-0.08705,0.21283 -0.18098,0.42565 -0.28178,0.63848c-0.07484,0.2003 -0.13135,0.40373 -0.16876,0.61022c-0.03742,0.20656 -0.08782,0.41626 -0.15044,0.62908c-0.02444,0.06262 -0.03742,0.12829 -0.03742,0.19717c0,0.0688 -0.01222,0.13455 -0.03742,0.19717c-0.0252,0.07507 -0.03436,0.15334 -0.02825,0.23467c0.00611,0.0814 -0.00305,0.16586 -0.02825,0.25353v0.11264c-0.01222,0.06262 -0.01222,0.12208 0,0.17839c0.01298,0.05659 0.01298,0.11615 0,0.17877c-0.02444,0.06185 -0.03742,0.1596 -0.03742,0.29095c0,0.13135 0.01298,0.22833 0.03742,0.29095c0.01273,0.07484 0.01273,0.15298 0,0.23444c-0.01222,0.08171 -0.01222,0.1596 0,0.2352c0.0252,0.04964 0.03436,0.10309 0.02825,0.1596c-0.00611,0.05575 -0.00305,0.11531 0.00993,0.17793c0.02495,0.10029 0.04353,0.19727 0.05575,0.29095c0.01298,0.09393 0.03131,0.1848 0.05651,0.27262c0.01222,0.04964 0.01909,0.09698 0.01909,0.14051c0,0.04429 0.01222,0.09698 0.03742,0.1596c0.06262,0.20084 0.11913,0.39785 0.16876,0.59182c0.0504,0.19396 0.11302,0.37876 0.18785,0.55364c0.32531,0.75142 0.74836,1.39898 1.26764,1.94345c0.51927,0.54473 1.15462,0.97975 1.90604,1.30505c0.13745,0.06262 0.27822,0.11913 0.42229,0.16953c0.14356,0.04964 0.28484,0.10004 0.42229,0.14967c0.10004,0.0252 0.20007,0.04735 0.30087,0.06567c0.10004,0.01909 0.20007,0.04124 0.30011,0.06567c0.10004,0.0252 0.19396,0.04124 0.28178,0.04735c0.08782,0.00611 0.18175,0.02215 0.28178,0.04658h0.20618c0.06262,0.01298 0.12218,0.01604 0.17869,0.00993c0.05651,-0.00687 0.11531,-0.00305 0.17793,0.00916c0.03818,0.01222 0.11913,0.02215 0.24436,0.02825c0.12524,0.00611 0.21305,0.00305 0.26269,-0.00916l0.62007,-0.05651c0.06262,-0.01298 0.12829,-0.01909 0.19702,-0.01909c0.06873,0 0.1344,-0.01222 0.19702,-0.03742l0.41313,-0.07484c0.13745,-0.0252 0.27567,-0.06262 0.41313,-0.11302c0.93927,-0.31309 1.72735,-0.76058 2.36575,-1.34247c0.6384,-0.58189 1.14545,-1.31116 1.52116,-2.18782c0.08782,-0.20007 0.1596,-0.40702 0.21611,-0.61931c0.05651,-0.21305 0.11607,-0.43222 0.17869,-0.65749c0.02444,-0.08782 0.04353,-0.17487 0.05575,-0.26269c0.01298,-0.08782 0.03131,-0.17564 0.05651,-0.26269c0.0252,-0.13822 0.03742,-0.27567 0.03742,-0.41313c0,-0.13822 0.01298,-0.26956 0.03742,-0.3948v-0.2436c0.0252,-0.0756 0.03436,-0.20389 0.02825,-0.38487zM153.87429,262.87907c2.42836,-0.03757 4.0992,0.68223 5.01327,2.15941c0.12524,0.20028 0.22222,0.40681 0.29095,0.61961c0.06873,0.21283 0.1344,0.44444 0.19702,0.69483c0.0252,0.10011 0.03436,0.21588 0.02825,0.34738c-0.00611,0.13142 -0.03436,0.2284 -0.084,0.29102c-0.06262,0.07514 -0.15044,0.12203 -0.26345,0.14081c-0.11225,0.01879 -0.23749,0.02818 -0.37495,0.02818h-1.52116c-0.11302,0 -0.20695,-0.01252 -0.28178,-0.03757c-0.15044,-0.06254 -0.24436,-0.16273 -0.28178,-0.30041c-0.03742,-0.13768 -0.08782,-0.27537 -0.15044,-0.41313c-0.04964,-0.12516 -0.11836,-0.25658 -0.20618,-0.39434c-0.08782,-0.13768 -0.18175,-0.24406 -0.28178,-0.3192c-0.17487,-0.12516 -0.3444,-0.23153 -0.50705,-0.3192c-0.15044,-0.06262 -0.33447,-0.11577 -0.55364,-0.1596c-0.21916,-0.04383 -0.44444,-0.07201 -0.67582,-0.08453c-0.23215,-0.01252 -0.46047,-0.00626 -0.68575,0.01879c-0.22527,0.02505 -0.42535,0.07514 -0.60098,0.15021c-0.28764,0.12519 -0.50985,0.27229 -0.66665,0.44131c-0.15655,0.16899 -0.26575,0.42252 -0.32836,0.76051c-0.0252,0.08759 -0.03131,0.18465 -0.01909,0.29102c0.01298,0.10637 0.03131,0.19091 0.05651,0.25353c0.10004,0.26284 0.24131,0.44749 0.42229,0.55394c0.18175,0.10637 0.39785,0.20962 0.64833,0.30981c0.13745,0.06262 0.27796,0.10951 0.42229,0.14081c0.14356,0.03131 0.29095,0.07201 0.44138,0.12203c0.33753,0.11271 0.68498,0.20969 1.04236,0.2911c0.35662,0.08133 0.71018,0.17212 1.06069,0.27224c0.06262,0.02505 0.12524,0.03757 0.18785,0.03757c0.06262,0 0.12524,0.01252 0.18785,0.03757c0.24971,0.08759 0.51011,0.16899 0.77891,0.24406c0.26956,0.07514 0.51011,0.18159 0.72316,0.31928c0.33753,0.21313 0.62924,0.42542 0.87284,0.63848c0.24436,0.21305 0.47269,0.48796 0.68575,0.82625c0.06262,0.10004 0.11531,0.21305 0.1596,0.33753c0.04353,0.12524 0.09087,0.25047 0.14051,0.37571c0.01298,0.03742 0.01909,0.07255 0.01909,0.10309c0,0.03131 0.00611,0.05956 0.01833,0.08476c0.0504,0.20007 0.0756,0.45055 0.0756,0.75142c0.02444,0.06262 0.02444,0.12524 0,0.18785v0.33753c-0.0252,0.13822 -0.04735,0.26956 -0.06567,0.3948c-0.01909,0.12524 -0.04735,0.24971 -0.08476,0.37495c-0.07484,0.22527 -0.15655,0.43222 -0.24436,0.62007c-0.08705,0.18785 -0.19396,0.36884 -0.3192,0.54447c-0.04964,0.06262 -0.10004,0.11607 -0.14967,0.1596c-0.0504,0.04353 -0.09393,0.09698 -0.13211,0.1596c-0.06262,0.07484 -0.13135,0.14738 -0.20618,0.21611c-0.07484,0.06873 -0.15655,0.1344 -0.24436,0.19702c-0.06262,0.0504 -0.12829,0.10004 -0.19702,0.15044c-0.06873,0.04964 -0.14051,0.10004 -0.21611,0.14967c-0.21229,0.13822 -0.43451,0.25047 -0.66665,0.33829c-0.23138,0.08782 -0.47193,0.17564 -0.7224,0.26269c-0.17564,0.06262 -0.35738,0.10309 -0.54447,0.12218c-0.18785,0.01909 -0.37571,0.04735 -0.56356,0.08476c-0.08782,0.0252 -0.17258,0.03436 -0.25353,0.02825c-0.08171,-0.00687 -0.1596,0.00305 -0.23444,0.02825h-0.15044c-0.0252,0 -0.05956,-0.00382 -0.10309,-0.00993c-0.04429,-0.00611 -0.07865,-0.00305 -0.10385,0.00993c-0.06262,0.01222 -0.16876,0.01833 -0.3192,0.01833c-0.14967,0 -0.25658,-0.00611 -0.3192,-0.01833h-0.18785c-0.08705,-0.0252 -0.17793,-0.03513 -0.27185,-0.02825c-0.09393,0.00611 -0.17869,-0.00305 -0.25353,-0.02825c-0.06262,0 -0.11913,-0.00305 -0.16876,-0.00993c-0.0504,-0.00611 -0.10691,-0.01527 -0.16953,-0.02749c-0.14967,-0.03818 -0.30622,-0.06949 -0.46887,-0.09393c-0.16291,-0.02545 -0.31335,-0.06313 -0.45131,-0.11302c-0.6132,-0.20007 -1.15156,-0.4536 -1.61433,-0.76058c-0.46353,-0.30622 -0.85145,-0.71018 -1.16455,-1.21113c-0.20007,-0.30011 -0.35662,-0.65673 -0.46964,-1.06985c-0.02495,-0.07535 -0.04047,-0.15069 -0.04658,-0.22604c-0.00611,-0.07484 -0.02215,-0.15578 -0.04735,-0.2436c-0.02444,-0.10004 -0.04353,-0.22222 -0.05575,-0.36655c-0.01298,-0.14356 0.01222,-0.25353 0.07484,-0.32836c0.06262,-0.10004 0.15349,-0.1596 0.27262,-0.17869c0.11836,-0.01833 0.25353,-0.02749 0.4032,-0.02749h1.50207c0.11302,0 0.21305,0.01833 0.30087,0.05575c0.13745,0.06262 0.21916,0.16647 0.24436,0.31004c0.02444,0.14433 0.06873,0.29095 0.13135,0.44138c0.04964,0.15044 0.11225,0.28789 0.18785,0.41313c0.07484,0.12524 0.15578,0.24436 0.2436,0.35662c0.06262,0.07484 0.13135,0.14433 0.20695,0.20695c0.07484,0.06211 0.14993,0.11836 0.22527,0.16876c0.27491,0.17487 0.6132,0.3192 1.01411,0.43145c0.08705,0.0252 0.17182,0.03818 0.25353,0.03818c0.08095,0 0.17182,0.01222 0.27185,0.03742h0.09393c0.10004,0.0252 0.23825,0.03742 0.41313,0.03742c0.17564,0 0.31309,-0.01222 0.41313,-0.03742c0.03742,-0.01298 0.10004,-0.01909 0.18785,-0.01909c0.06262,-0.01222 0.12829,-0.02215 0.19702,-0.02825c0.06873,-0.00611 0.1344,-0.02138 0.19702,-0.04658c0.4256,-0.11251 0.76364,-0.26269 1.01411,-0.45055c0.25047,-0.18785 0.42535,-0.50095 0.52615,-0.93927c0.02444,-0.08782 0.02825,-0.18785 0.00916,-0.30011c-0.01909,-0.11302 -0.04047,-0.20084 -0.06567,-0.26269c-0.12524,-0.33829 -0.33829,-0.60098 -0.6384,-0.78884c-0.03742,-0.0252 -0.10691,-0.06262 -0.20695,-0.11302c-0.18735,-0.11251 -0.39684,-0.20313 -0.62847,-0.27185c-0.23215,-0.06949 -0.46047,-0.14127 -0.68575,-0.21611c-0.08782,-0.0252 -0.17182,-0.04735 -0.25353,-0.06567c-0.08145,-0.01884 -0.17207,-0.04073 -0.27185,-0.06567c-0.20084,-0.06262 -0.40396,-0.11607 -0.61091,-0.1596c-0.20618,-0.04429 -0.4032,-0.09698 -0.59105,-0.1596c-0.06262,-0.0252 -0.11302,-0.03742 -0.15044,-0.03742c-0.03742,0 -0.08095,-0.01298 -0.13135,-0.03818c-0.10004,-0.02444 -0.19091,-0.04964 -0.27262,-0.07484c-0.08095,-0.0252 -0.17182,-0.0504 -0.27185,-0.07484c-0.28789,-0.10004 -0.56356,-0.20389 -0.82625,-0.31004c-0.26269,-0.10615 -0.50705,-0.22833 -0.73233,-0.36655c-0.28789,-0.18709 -0.55058,-0.40648 -0.78884,-0.65688c-0.23749,-0.2504 -0.42535,-0.53829 -0.5628,-0.86375c-0.0504,-0.11266 -0.08807,-0.22845 -0.11302,-0.34738c-0.0252,-0.11897 -0.05651,-0.24727 -0.09393,-0.38495c-0.0252,-0.11271 -0.04353,-0.27544 -0.05651,-0.48819c-0.01222,-0.21283 -0.00611,-0.38808 0.01909,-0.52576c0.01222,-0.05009 0.01833,-0.12524 0.01833,-0.22535c0.03818,-0.13768 0.06949,-0.26918 0.09393,-0.39434c0.0252,-0.12516 0.06262,-0.2504 0.11302,-0.37556c0.18785,-0.4381 0.4284,-0.81052 0.72316,-1.11728c0.294,-0.30668 0.63535,-0.58517 1.02327,-0.83557c0.25047,-0.15021 0.51927,-0.26918 0.80716,-0.35677c0.28789,-0.08767 0.59487,-0.16899 0.92018,-0.24413c0.12524,-0.02505 0.24742,-0.04063 0.36578,-0.04689c0.11913,-0.00626 0.24131,-0.02192 0.36655,-0.04696c0.03742,-0.01252 0.09698,-0.01252 0.17869,0c0.08095,0.01252 0.1344,0.00626 0.1596,-0.01879zM262.22589,263.1607h-1.50207c-0.0252,0 -0.05345,0.00313 -0.08476,0.00939c-0.03131,0.00626 -0.05956,0.00939 -0.084,0.00939c-0.12524,0.03757 -0.21305,0.10019 -0.26345,0.18778c-0.04964,0.08767 -0.07484,0.20656 -0.07484,0.35677v11.84828c0,0.17564 0.00611,0.3444 0.01909,0.50705c0.01222,0.16265 0.06873,0.28178 0.16876,0.35738c0.10004,0.07484 0.27567,0.1092 0.52615,0.10309c0.24971,-0.00611 0.46276,-0.00993 0.6384,-0.00993c0.11225,0 0.2436,0.00382 0.39404,0.00993c0.15044,0.00611 0.29705,0.00611 0.44138,0c0.14356,-0.00611 0.27491,-0.01909 0.39404,-0.03742c0.11913,-0.01909 0.19702,-0.05956 0.2352,-0.12218c0.07484,-0.11302 0.11225,-0.27567 0.11225,-0.48873v-4.01825c0,-0.06262 -0.00305,-0.1344 -0.00916,-0.21611c-0.00611,-0.08095 -0.00305,-0.15273 0.00916,-0.21535v-0.18785c0.0252,-0.12524 0.0504,-0.21916 0.07484,-0.28178c0.0504,-0.07484 0.10691,-0.12218 0.16953,-0.14051c0.06262,-0.01909 0.14356,-0.04124 0.2436,-0.06644h4.43215c0.23749,0 0.40015,0.08782 0.48796,0.26345c0.01222,0.03742 0.01833,0.07484 0.01833,0.11225c0,0.03742 0.00687,0.0756 0.01909,0.11302v0.18785c0.01222,0.04964 0.01604,0.10004 0.00916,0.14967c-0.00611,0.0504 -0.00916,0.1008 -0.00916,0.15044v3.2676c0,0.10004 -0.00305,0.21611 -0.00916,0.34745c-0.00662,0.13135 -0.00662,0.26269 0,0.39404c0.00611,0.13135 0.01833,0.25658 0.03742,0.37571c0.01833,0.11913 0.04658,0.20313 0.08476,0.25353c0.03742,0.06262 0.11531,0.10309 0.23444,0.12218c0.11913,0.01833 0.25047,0.03131 0.39404,0.03742c0.14433,0.00611 0.28789,0.00611 0.43222,0c0.14356,-0.00611 0.27185,-0.00993 0.38487,-0.00993c0.21305,0 0.44138,0.00382 0.68498,0.00993c0.24436,0.00611 0.42305,-0.04047 0.53531,-0.14127c0.08756,-0.06262 0.13135,-0.17513 0.13135,-0.33753v-12.45903c0,-0.14395 -0.04353,-0.24727 -0.13135,-0.30981c-0.11225,-0.10019 -0.28484,-0.14715 -0.51622,-0.14089c-0.23138,0.00626 -0.4536,0.00939 -0.66665,0.00939c-0.11225,0 -0.24436,-0.00313 -0.39404,-0.00939c-0.15018,-0.00621 -0.30036,-0.00621 -0.45055,0c-0.15044,0.00626 -0.28484,0.02192 -0.40396,0.04696c-0.11913,0.02505 -0.19702,0.06888 -0.23444,0.13142c-0.08782,0.10019 -0.12829,0.27544 -0.12218,0.52584c0.00611,0.25032 0.00916,0.46941 0.00916,0.65719v2.44104c0,0.17525 0.00611,0.37556 0.01909,0.60091c0.01222,0.22535 -0.01298,0.39434 -0.0756,0.50698c-0.08705,0.15021 -0.25047,0.22848 -0.48796,0.23474c-0.23825,0.00626 -0.46964,0.00939 -0.69491,0.00939h-3.60513c-0.10004,-0.02505 -0.19091,-0.0407 -0.27262,-0.04696c-0.08095,-0.00626 -0.15273,-0.04696 -0.21535,-0.12203c-0.1008,-0.13776 -0.14433,-0.34112 -0.13211,-0.6103c0.01298,-0.26911 0.01909,-0.51011 0.01909,-0.72293v-3.1264c0,-0.06888 -0.01222,-0.13463 -0.03742,-0.19717c-0.06262,-0.17525 -0.17258,-0.27231 -0.32836,-0.2911c-0.15655,-0.01879 -0.34135,-0.02818 -0.5544,-0.02818zM118.267,272.88736c0.01871,-0.22527 0.01558,-0.40702 -0.00939,-0.54447v-0.20618c-0.02505,-0.1008 -0.04383,-0.20389 -0.05636,-0.31004c-0.01252,-0.10691 -0.03757,-0.21 -0.07514,-0.31004c-0.11264,-0.38793 -0.26911,-0.72622 -0.46941,-1.01411c-0.21283,-0.30011 -0.48819,-0.5628 -0.82618,-0.78884c-0.10019,-0.06185 -0.21909,-0.12829 -0.35677,-0.19702c-0.13776,-0.06865 -0.21909,-0.15311 -0.24413,-0.2533c-0.02505,-0.06254 -0.02192,-0.11577 0.00939,-0.1596c0.03131,-0.04383 0.05949,-0.0782 0.08446,-0.10324c0.07514,-0.10019 0.16273,-0.18152 0.26292,-0.24413c0.10014,-0.06257 0.19401,-0.13768 0.28163,-0.22535c0.26292,-0.28789 0.47575,-0.65719 0.63848,-1.10781c0.02505,-0.06262 0.0407,-0.12837 0.04696,-0.19717c0.00619,-0.06888 0.02184,-0.14708 0.04689,-0.23474c0,-0.02505 0.00313,-0.06262 0.00939,-0.11264c0.00626,-0.05009 0.00939,-0.09393 0.00939,-0.1315v-0.16899c0.01252,-0.02505 0.02192,-0.06567 0.02818,-0.12203c0.00626,-0.05636 0.00313,-0.10324 -0.00939,-0.14081c-0.01252,-0.05009 -0.01565,-0.10019 -0.00939,-0.15021c0.00626,-0.05009 0.00313,-0.10019 -0.00939,-0.15028c-0.02505,-0.10011 -0.0407,-0.19396 -0.04696,-0.28163c-0.00626,-0.08759 -0.02184,-0.17525 -0.04689,-0.26292c-0.10019,-0.33799 -0.23164,-0.6384 -0.39434,-0.90124c-0.16273,-0.26292 -0.36929,-0.48201 -0.61969,-0.65726c-0.17525,-0.12516 -0.36929,-0.22848 -0.58204,-0.30981c-0.21283,-0.0814 -0.43817,-0.16586 -0.67605,-0.25353c-0.10014,-0.025 -0.19715,-0.04376 -0.29102,-0.05628c-0.09393,-0.01252 -0.19091,-0.03131 -0.29102,-0.05636c-0.08767,-0.02505 -0.17212,-0.03444 -0.25353,-0.02818c-0.0814,0.00626 -0.1596,-0.00313 -0.23474,-0.02818h-0.11264c-0.06257,-0.01252 -0.12516,-0.01252 -0.18778,0c-0.06262,0.01252 -0.12516,0.00626 -0.18778,-0.01879c-0.07514,-0.01252 -0.15647,-0.01565 -0.24413,-0.00939c-0.08759,0.00626 -0.17525,0.00939 -0.26284,0.00939h-5.5957c-0.02505,0.01252 -0.05009,0.01565 -0.07514,0.00939c-0.02497,-0.00626 -0.05002,-0.00313 -0.07507,0.00939c-0.13768,0.03757 -0.23161,0.10019 -0.28171,0.18778c-0.06257,0.10014 -0.09072,0.23472 -0.08446,0.40373c0.00626,0.16899 0.00939,0.32859 0.00939,0.4788v11.0224c0,0.13745 -0.00313,0.31004 -0.00939,0.51622c-0.00626,0.20695 0.00939,0.35967 0.04696,0.46047c0.06254,0.14967 0.16586,0.23444 0.30981,0.25353c0.14395,0.01833 0.32233,0.02749 0.53516,0.02749h5.48299c0.06262,0 0.12211,0.00382 0.17839,0.00993c0.05636,0.00611 0.10958,0.00305 0.15968,-0.00993c0.06254,-0.02444 0.12203,-0.03055 0.17839,-0.01833c0.05628,0.01222 0.10951,0.01222 0.1596,0c0.06254,-0.01222 0.12203,-0.01909 0.17839,-0.01909c0.05628,0 0.11577,-0.00611 0.17839,-0.01833c0.13768,-0.0252 0.28163,-0.04735 0.43184,-0.06567c0.15021,-0.01909 0.29423,-0.05345 0.43191,-0.10385c0.27537,-0.08756 0.53511,-0.18455 0.77921,-0.29095c0.24411,-0.1064 0.47259,-0.23469 0.68544,-0.38487c0.55081,-0.40015 0.9576,-0.91407 1.22052,-1.53949c0.03757,-0.10004 0.0688,-0.20695 0.09385,-0.3192c0.02505,-0.11302 0.05009,-0.23138 0.07514,-0.35662c0.02505,-0.12524 0.04696,-0.30087 0.06575,-0.52615zM442.90684,269.41366c0,0.03749 0.00305,0.08774 0.00916,0.15036c0.00687,0.06262 0.00993,0.13135 0.00993,0.20618c0,0.0756 -0.00305,0.14433 -0.00993,0.20695c-0.00611,0.06262 -0.00916,0.10615 -0.00916,0.13135c0,0.08782 -0.00305,0.17182 -0.00916,0.25353c-0.00611,0.08095 -0.00916,0.1596 -0.00916,0.23444c-0.0252,0.06262 -0.03436,0.12524 -0.02825,0.18785c0.00611,0.06262 0.00305,0.12524 -0.00993,0.18785c-0.02444,0.13745 -0.04353,0.27567 -0.05575,0.41313c-0.01298,0.13745 -0.03818,0.27567 -0.0756,0.41313c-0.06262,0.21305 -0.11836,0.41618 -0.16876,0.61015c-0.0504,0.19396 -0.11302,0.38487 -0.18785,0.57273c-0.21305,0.52615 -0.47575,1.00189 -0.78884,1.42724c-0.31258,0.4256 -0.68804,0.78858 -1.12636,1.08895c-0.25047,0.17564 -0.51011,0.32531 -0.77967,0.45055c-0.2688,0.12524 -0.55975,0.238 -0.87284,0.33829c-0.12524,0.03742 -0.25353,0.06567 -0.38487,0.084c-0.13135,0.01909 -0.26575,0.04735 -0.40396,0.08476c-0.06262,0.01298 -0.12218,0.01909 -0.17793,0.01909c-0.05651,0 -0.11607,0.00611 -0.17869,0.01833c-0.04964,0.01298 -0.10004,0.01604 -0.15044,0.00993c-0.04964,-0.00687 -0.10615,-0.00305 -0.16876,0.00916c-0.0252,0.01222 -0.06262,0.01527 -0.11225,0.00916c-0.0504,-0.00611 -0.08782,-0.00305 -0.11302,0.00916c-0.10004,0.0252 -0.22527,0.03131 -0.37571,0.01909c-0.15044,-0.01222 -0.28178,-0.01909 -0.39404,-0.01909h-4.37564c-0.21229,0 -0.39098,-0.00916 -0.53455,-0.02749c-0.14433,-0.01909 -0.24742,-0.10385 -0.31004,-0.25353c-0.03742,-0.1008 -0.05345,-0.25353 -0.04735,-0.46047c0.00687,-0.20618 0.00993,-0.37876 0.00993,-0.51622v-11.0224c0,-0.15021 -0.00305,-0.30981 -0.00993,-0.4788c-0.00611,-0.16899 0.02215,-0.30355 0.08476,-0.40373c0.0504,-0.07507 0.14433,-0.13768 0.28178,-0.18778c0.0252,-0.01252 0.0504,-0.01565 0.07484,-0.00939c0.0252,0.00626 0.0504,0.00313 0.0756,-0.00939h5.05069c0.0756,0 0.15349,-0.00313 0.2352,-0.00939c0.08095,-0.00626 0.15273,-0.00313 0.21535,0.00939h0.22604c0.06185,0.02505 0.13135,0.03444 0.20618,0.02818c0.07484,-0.00626 0.14356,0.00313 0.20618,0.02818c0.0756,0.02505 0.14738,0.03444 0.21611,0.02818c0.06873,-0.00626 0.14127,0.00313 0.21611,0.02818c0.17564,0.03757 0.3444,0.07193 0.50705,0.10324c0.16265,0.03131 0.3192,0.07827 0.46964,0.14081c0.13745,0.06262 0.27516,0.11895 0.41313,0.16899c0.13745,0.05009 0.2688,0.11271 0.39404,0.18778c0.31309,0.2003 0.60098,0.39434 0.86367,0.58212l0.11302,0.11271c0.12524,0.10011 0.23749,0.21275 0.33753,0.33799l0.16953,0.15021c0.06262,0.10011 0.1344,0.19717 0.21535,0.29102c0.08171,0.09393 0.15349,0.19091 0.21611,0.2911c0.16265,0.26284 0.30698,0.54142 0.43222,0.83557c0.12524,0.29415 0.23749,0.60404 0.33753,0.9295c0.06262,0.16273 0.10385,0.33172 0.12218,0.50698c0.01909,0.17525 0.04735,0.35051 0.08476,0.52576c0,0.06262 0.00305,0.11577 0.00916,0.1596c0.00611,0.04383 0.00916,0.0908 0.00916,0.14081c0.0252,0.07514 0.03436,0.15647 0.02825,0.24413c-0.00611,0.08761 0.00331,0.16273 0.02825,0.22535zM211.58993,264.83192c0.28789,0.4006 0.49789,0.84496 0.62924,1.33323c0.13135,0.48819 0.17869,1.07657 0.14051,1.76507c-0.02444,0.27537 -0.06873,0.52889 -0.13135,0.76051c-0.06262,0.23153 -0.13745,0.44749 -0.22527,0.64779c-0.0252,0.05009 -0.04658,0.09698 -0.06567,0.14081c-0.01833,0.04345 -0.04047,0.0908 -0.06567,0.1412c-0.04964,0.08705 -0.09698,0.17182 -0.14051,0.25276c-0.04429,0.08171 -0.09698,0.16036 -0.1596,0.2352c-0.25047,0.35051 -0.5544,0.63535 -0.91102,0.85451c-0.35662,0.21916 -0.76058,0.4032 -1.21113,0.55364c-0.13745,0.0504 -0.28178,0.08171 -0.43145,0.09393c-0.15044,0.01222 -0.30087,0.03742 -0.45131,0.07484c-0.07484,0.01298 -0.14967,0.01909 -0.22527,0.01909c-0.07484,0 -0.14967,0.00611 -0.22527,0.01909h-2.86364c-0.18098,0 -0.32225,0.03742 -0.42229,0.11225c-0.12524,0.08782 -0.18785,0.24131 -0.18785,0.46047v3.12633c0,0.14967 0.00305,0.31309 0.00916,0.48796c0.00687,0.17564 -0.02138,0.31309 -0.084,0.41313c-0.0504,0.08782 -0.16265,0.15655 -0.33829,0.20618c-0.08782,0.0252 -0.18098,0.03131 -0.28178,0.01909c-0.10004,-0.01222 -0.20007,-0.01909 -0.30011,-0.01909h-1.08895c-0.13796,0 -0.26625,-0.00305 -0.38487,-0.00916c-0.11913,-0.00611 -0.21611,-0.04047 -0.29095,-0.10309c-0.07535,-0.06262 -0.11938,-0.1596 -0.13211,-0.29095c-0.01222,-0.13135 -0.01833,-0.26651 -0.01833,-0.40396v-11.22881c0,-0.17525 -0.00305,-0.38182 -0.00916,-0.61969c-0.00687,-0.2378 0.02138,-0.40679 0.084,-0.50698c0.0504,-0.07507 0.14433,-0.13768 0.28178,-0.18778c0.0252,-0.01252 0.05345,-0.01565 0.08476,-0.00939c0.03131,0.00626 0.05956,0.00313 0.084,-0.00939h5.42716c0.11225,0 0.22527,-0.00313 0.33753,-0.00939c0.11302,-0.00626 0.21916,0.00313 0.3192,0.02818h0.09393c0.06262,0.02505 0.13135,0.03757 0.20695,0.03757c0.07484,0 0.14356,0.01252 0.20618,0.03757c0.06262,0.01252 0.11913,0.01879 0.16953,0.01879c0.04964,0 0.10615,0.01252 0.16876,0.03757c0.20007,0.06254 0.40015,0.12203 0.60098,0.17839c0.20007,0.05628 0.38793,0.13455 0.5628,0.23467c0.06262,0.05009 0.13211,0.09393 0.20695,0.1315c0.07484,0.03749 0.15044,0.08759 0.22527,0.15021c0.06262,0.03749 0.11607,0.0782 0.1596,0.12203c0.04353,0.04383 0.09698,0.0908 0.1596,0.14081l0.11302,0.11271c0.14967,0.15021 0.27491,0.30041 0.37495,0.45062zM232.40207,275.83576c-0.03131,-0.0756 -0.05345,-0.13822 -0.06567,-0.18785c-0.0252,-0.03742 -0.03818,-0.07178 -0.03818,-0.10309c0,-0.03131 -0.01222,-0.06644 -0.03742,-0.10385c-0.16265,-0.38793 -0.31309,-0.78196 -0.45055,-1.18287c-0.13745,-0.40015 -0.28789,-0.80105 -0.45055,-1.20196c-0.03742,-0.10004 -0.06873,-0.19702 -0.09393,-0.29095c-0.02495,-0.09367 -0.06236,-0.19065 -0.11225,-0.29095l-0.45131,-1.20196c-0.02444,-0.04964 -0.04047,-0.09698 -0.04658,-0.14051c-0.00611,-0.04353 -0.02215,-0.09087 -0.04735,-0.14051c-0.26269,-0.62618 -0.50324,-1.25847 -0.7224,-1.89687c-0.21916,-0.6384 -0.45436,-1.27061 -0.70407,-1.89649c-0.1008,-0.2504 -0.19396,-0.49759 -0.28178,-0.74172c-0.08782,-0.24413 -0.18175,-0.49132 -0.28178,-0.74172l-0.15044,-0.45062c-0.08782,-0.21283 -0.16876,-0.42252 -0.2436,-0.62908c-0.0756,-0.20656 -0.15655,-0.41618 -0.24436,-0.62901c-0.06262,-0.15021 -0.11607,-0.29736 -0.1596,-0.44131c-0.04353,-0.14395 -0.1344,-0.25345 -0.27262,-0.32859c-0.08705,-0.06262 -0.20313,-0.0908 -0.34745,-0.08453c-0.14356,0.00626 -0.28407,0.00939 -0.42229,0.00939h-1.65251c-0.02444,0.01252 -0.04964,0.01565 -0.07484,0.00939c-0.0252,-0.00626 -0.0504,-0.00313 -0.07484,0.00939c-0.1008,0.02505 -0.18175,0.05636 -0.24436,0.09393c-0.11302,0.08759 -0.19091,0.20343 -0.23444,0.34738c-0.04429,0.14395 -0.09698,0.28476 -0.1596,0.42244c-0.11302,0.26292 -0.21916,0.5321 -0.3192,0.80747c-0.1008,0.27537 -0.20084,0.54455 -0.30087,0.80739c-0.0252,0.06262 -0.04353,0.11897 -0.05651,0.16899c-0.01222,0.05009 -0.03131,0.10645 -0.05575,0.16907c-0.28789,0.68849 -0.5544,1.38325 -0.798,2.08427c-0.24436,0.70102 -0.51087,1.39577 -0.79876,2.08457c-0.10004,0.24971 -0.19396,0.49713 -0.28102,0.74149c-0.08782,0.24436 -0.18175,0.49102 -0.28178,0.74149c-0.10004,0.26269 -0.20084,0.53225 -0.30087,0.80793c-0.10004,0.27491 -0.20007,0.54447 -0.30011,0.80716c-0.0504,0.10004 -0.08782,0.20007 -0.11302,0.30011c-0.02444,0.10004 -0.06262,0.20084 -0.11225,0.30087c-0.11302,0.28789 -0.22222,0.58189 -0.32836,0.882c-0.10691,0.30087 -0.22222,0.59487 -0.34745,0.88276c-0.0252,0.0504 -0.0504,0.11302 -0.0756,0.18785c-0.0252,0.07484 -0.04658,0.15349 -0.06567,0.23444c-0.01833,0.08171 -0.0252,0.1596 -0.01833,0.2352c0.00611,0.07484 0.04047,0.13135 0.10309,0.16876c0.10004,0.06262 0.26575,0.09087 0.49713,0.08476c0.23215,-0.00611 0.42916,-0.00993 0.59182,-0.00993c0.11302,0 0.24436,0.00382 0.39404,0.00993c0.15044,0.00611 0.29782,0.00916 0.44138,0.00916c0.14433,0 0.27567,-0.00916 0.3948,-0.02825c0.11836,-0.01833 0.20924,-0.05269 0.27185,-0.10309c0.10004,-0.07484 0.17258,-0.18175 0.21611,-0.3192c0.04353,-0.13745 0.09087,-0.26956 0.14051,-0.39404c0.08782,-0.22604 0.16647,-0.45436 0.2352,-0.68575c0.06873,-0.23138 0.15349,-0.4536 0.25353,-0.66665c0.04964,-0.12524 0.09393,-0.25047 0.13135,-0.37571c0.03742,-0.12524 0.10615,-0.22527 0.20618,-0.30011c0.13822,-0.10004 0.32913,-0.14738 0.57273,-0.14127c0.24436,0.00687 0.47269,0.00993 0.68575,0.00993h2.96673c0.06262,0 0.12218,0.00305 0.17869,0.00916c0.05575,0.00611 0.11531,0.00916 0.17793,0.00916c0.12524,0.0252 0.22527,0.06567 0.30087,0.12218c0.07484,0.05651 0.13135,0.12218 0.16876,0.19702c0.03742,0.0756 0.07178,0.1596 0.10309,0.25353l0.10309,0.31004c0.0756,0.18785 0.14738,0.38182 0.21611,0.58189c0.06873,0.20084 0.1344,0.40091 0.19702,0.60098c0.0504,0.11302 0.09087,0.22527 0.12218,0.33829c0.03131,0.11225 0.07865,0.21916 0.14127,0.3192c0.06262,0.11225 0.16265,0.18785 0.30011,0.22527c0.07484,0.0252 0.15349,0.03436 0.23444,0.02825c0.08171,-0.00611 0.17258,-0.00993 0.27262,-0.00993h0.88276c0.14967,0 0.34058,0.00687 0.57273,0.01909c0.23138,0.01222 0.39709,-0.01222 0.49713,-0.07484c0.07535,-0.03767 0.11913,-0.09418 0.13135,-0.16953c0.01298,-0.07484 0.00993,-0.15273 -0.00916,-0.23444c-0.01833,-0.08171 -0.04353,-0.1596 -0.07484,-0.23444zM398.25015,275.64791c0.01222,0.04964 0.03436,0.11225 0.06567,0.18785c0.03131,0.07484 0.05651,0.15273 0.07484,0.23444c0.01909,0.08171 0.02215,0.1596 0.00993,0.23444c-0.01298,0.0756 -0.05651,0.13211 -0.13135,0.16953c-0.1008,0.06262 -0.26651,0.08705 -0.49789,0.07484c-0.23138,-0.01222 -0.42229,-0.01909 -0.57273,-0.01909h-0.88276c-0.10004,0 -0.19091,0.00382 -0.27185,0.00993c-0.08171,0.00611 -0.1596,-0.00305 -0.2352,-0.02825c-0.13745,-0.03742 -0.23749,-0.11302 -0.30011,-0.22527c-0.06262,-0.10004 -0.1092,-0.20695 -0.14051,-0.3192c-0.03131,-0.11302 -0.07255,-0.22527 -0.12218,-0.33829c-0.06262,-0.20007 -0.12829,-0.40015 -0.19702,-0.60098c-0.06949,-0.20007 -0.14127,-0.39404 -0.21611,-0.58189l-0.10385,-0.31004c-0.03055,-0.09393 -0.06567,-0.17793 -0.10309,-0.25353c-0.03742,-0.07484 -0.09393,-0.14051 -0.16876,-0.19702c-0.07484,-0.05651 -0.17564,-0.09698 -0.30011,-0.12218c-0.06262,0 -0.12218,-0.00305 -0.17869,-0.00916c-0.05651,-0.00611 -0.11607,-0.00916 -0.17869,-0.00916h-2.96673c-0.21229,0 -0.44138,-0.00305 -0.68498,-0.00993c-0.24436,-0.00611 -0.43527,0.04124 -0.57273,0.14127c-0.10004,0.07484 -0.16953,0.17487 -0.20695,0.30011c-0.03742,0.12524 -0.08095,0.25047 -0.13135,0.37571c-0.10004,0.21305 -0.1848,0.43527 -0.25353,0.66665c-0.06873,0.23138 -0.14738,0.45971 -0.23444,0.68575c-0.0504,0.12447 -0.09698,0.25658 -0.14127,0.39404c-0.04353,0.13745 -0.11531,0.24436 -0.21535,0.3192c-0.06262,0.0504 -0.15349,0.08476 -0.27262,0.10309c-0.11913,0.01909 -0.25047,0.02825 -0.39404,0.02825c-0.14433,0 -0.29171,-0.00305 -0.44138,-0.00916c-0.15044,-0.00611 -0.28178,-0.00993 -0.3948,-0.00993c-0.16265,0 -0.35967,0.00382 -0.59105,0.00993c-0.23138,0.00611 -0.39785,-0.02215 -0.49789,-0.08476c-0.06262,-0.03742 -0.09698,-0.09393 -0.10309,-0.16876c-0.00611,-0.0756 0,-0.15349 0.01909,-0.2352c0.01833,-0.08095 0.04047,-0.1596 0.06567,-0.23444c0.02444,-0.07484 0.04964,-0.13745 0.07484,-0.18785c0.12524,-0.28789 0.24131,-0.58189 0.34745,-0.88276c0.10615,-0.30011 0.21611,-0.59411 0.32836,-0.882c0.0504,-0.10004 0.08782,-0.20084 0.11302,-0.30087c0.0252,-0.10004 0.06262,-0.20007 0.11225,-0.30011c0.10004,-0.26269 0.20084,-0.53225 0.30087,-0.80716c0.10004,-0.27567 0.20007,-0.54524 0.30011,-0.80793c0.10004,-0.25047 0.19396,-0.49713 0.28178,-0.74149c0.08782,-0.24436 0.18175,-0.49178 0.28178,-0.74149c0.28764,-0.6887 0.55364,-1.38356 0.798,-2.08457c0.24436,-0.70102 0.51011,-1.39577 0.798,-2.08427c0.0252,-0.06262 0.04353,-0.11897 0.05651,-0.16907c0.01222,-0.05002 0.03131,-0.10637 0.05575,-0.16899c0.1008,-0.26284 0.20084,-0.53203 0.30087,-0.80739c0.10004,-0.27537 0.20618,-0.54455 0.3192,-0.80747c0.06262,-0.13768 0.11607,-0.2785 0.1596,-0.42244c0.04353,-0.14395 0.12218,-0.25979 0.23444,-0.34738c0.06262,-0.03757 0.14433,-0.06888 0.24436,-0.09393c0.0252,-0.01252 0.0504,-0.01565 0.07484,-0.00939c0.0252,0.00626 0.0504,0.00313 0.0756,-0.00939h1.65251c0.13745,0 0.27796,-0.00313 0.42229,-0.00939c0.14356,-0.00626 0.25964,0.02192 0.34745,0.08453c0.13745,0.07514 0.22833,0.18465 0.27185,0.32859c0.04429,0.14395 0.09698,0.2911 0.1596,0.44131c0.08782,0.21283 0.16953,0.42244 0.24436,0.62901c0.07484,0.20656 0.15655,0.41626 0.24436,0.62908l0.14967,0.45062c0.10004,0.2504 0.19396,0.49759 0.28178,0.74172c0.08782,0.24413 0.18175,0.49132 0.28178,0.74172c0.25047,0.62588 0.48491,1.25809 0.70407,1.89649c0.21916,0.6384 0.46047,1.27069 0.72316,1.89687c0.0252,0.04964 0.04047,0.09698 0.04658,0.14051c0.00611,0.04353 0.02215,0.09087 0.04735,0.14051l0.45055,1.20196c0.04964,0.10004 0.08782,0.19702 0.11225,0.29095c0.0252,0.09393 0.05651,0.19091 0.09393,0.29095c0.16265,0.40091 0.31309,0.80182 0.45131,1.20196c0.13745,0.40091 0.28789,0.79495 0.45055,1.18287c0.02495,0.03767 0.03742,0.07229 0.03742,0.10385c0,0.03131 0.01222,0.06567 0.03742,0.10309zM138.06282,263.1607h-8.65643c-0.02505,0.01252 -0.05009,0.01565 -0.07514,0.00939c-0.02497,-0.00626 -0.05002,-0.00313 -0.07507,0.00939c-0.13768,0.03757 -0.23161,0.10019 -0.28171,0.18778c-0.05002,0.06262 -0.07507,0.15021 -0.07507,0.26292v12.4026c0,0.11913 0.02505,0.21611 0.07507,0.29095c0.06262,0.10004 0.15968,0.1596 0.2911,0.17869c0.13142,0.01833 0.28476,0.02749 0.46001,0.02749h8.83481c0.1189,0 0.21596,-0.03055 0.29102,-0.09316c0.10019,-0.06262 0.15652,-0.15985 0.16899,-0.29171c0.01252,-0.13135 0.01879,-0.27185 0.01879,-0.42229v-0.86367c0,-0.10004 -0.00313,-0.19396 -0.00939,-0.28178c-0.00626,-0.08782 -0.02192,-0.16265 -0.04689,-0.22527c-0.03757,-0.10004 -0.10645,-0.16876 -0.20656,-0.20618c-0.07514,-0.03818 -0.1596,-0.05651 -0.25353,-0.05651h-5.60509c-0.06254,0 -0.13142,0.00305 -0.20649,0.00916c-0.07514,0.00611 -0.14402,0.00305 -0.20656,-0.00916h-0.18778c-0.06262,-0.02495 -0.12208,-0.04073 -0.17839,-0.04735c-0.05636,-0.00611 -0.10332,-0.02825 -0.14081,-0.06567c-0.08767,-0.06262 -0.14089,-0.15324 -0.15968,-0.27185c-0.01871,-0.11913 -0.0281,-0.25353 -0.0281,-0.40396v-1.96255c0,-0.06873 0.00626,-0.1344 0.01879,-0.19702c0.03749,-0.11225 0.09698,-0.19702 0.17839,-0.25353c0.08133,-0.05575 0.18152,-0.09393 0.30041,-0.11225c0.1189,-0.01909 0.24719,-0.0252 0.38495,-0.01909c0.13768,0.00611 0.28163,0.00916 0.43184,0.00916h3.66164c0.08761,0 0.19715,0.00331 0.32859,0.00993c0.13142,0.00611 0.26292,0.00916 0.39434,0.00916c0.13142,0 0.25032,-0.00611 0.35677,-0.01909c0.10637,-0.01222 0.19091,-0.03742 0.25345,-0.07484c0.07514,-0.06262 0.12524,-0.14356 0.15028,-0.24436c0.02497,-0.06185 0.03749,-0.13745 0.03749,-0.22527v-0.26269c0,-0.10004 0.00313,-0.21916 0.00939,-0.35662c0.00626,-0.13776 0.00626,-0.27231 0,-0.40373c-0.00626,-0.1315 -0.02192,-0.25353 -0.04689,-0.36616c-0.02505,-0.11271 -0.06888,-0.18778 -0.1315,-0.22535c-0.05002,-0.03757 -0.12829,-0.06262 -0.23467,-0.07514c-0.10645,-0.01252 -0.22222,-0.02184 -0.34738,-0.0281c-0.12524,-0.00626 -0.25353,-0.00626 -0.38495,0c-0.13145,0.00626 -0.24098,0.00939 -0.32859,0.00939h-4.24376c-0.11264,0 -0.21909,-0.00313 -0.3192,-0.00939c-0.10011,-0.00626 -0.18778,-0.03444 -0.26284,-0.08453c-0.06262,-0.03757 -0.10645,-0.09072 -0.1315,-0.1596c-0.02505,-0.06888 -0.05009,-0.15334 -0.07507,-0.25353v-1.61486c0,-0.15021 0.00939,-0.28476 0.0281,-0.40366c0.01879,-0.11897 0.07201,-0.20969 0.15968,-0.27231c0.05002,-0.03757 0.13142,-0.06567 0.24406,-0.08446c0.11271,-0.01879 0.23474,-0.03131 0.36616,-0.03757c0.13145,-0.00626 0.26289,-0.00626 0.39434,0c0.13145,0.00626 0.24724,0.00939 0.34738,0.00939h5.05115c0.11264,0 0.20656,-0.02505 0.28163,-0.07514c0.08767,-0.05009 0.15021,-0.15021 0.18778,-0.30041c0,-0.12516 0.00626,-0.21909 0.01879,-0.28171c0.01252,-0.08759 0.01565,-0.17839 0.00939,-0.27224c-0.00626,-0.09393 -0.00939,-0.19091 -0.00939,-0.29102c0,-0.08767 0.00313,-0.18157 0.00939,-0.28171c0.00626,-0.10011 0.00313,-0.19404 -0.00939,-0.28163v-0.20656c-0.02505,-0.05009 -0.0407,-0.10019 -0.04696,-0.15021c-0.00626,-0.05009 -0.02184,-0.09393 -0.04689,-0.1315c-0.06262,-0.08759 -0.16273,-0.13768 -0.30049,-0.15021c-0.13768,-0.01252 -0.28163,-0.01879 -0.43184,-0.01879zM178.9208,263.1607h-9.52025c-0.10004,0.02505 -0.16876,0.05009 -0.20618,0.07514c-0.10029,0.06257 -0.15985,0.15644 -0.17869,0.28163c-0.01833,0.12524 -0.02825,0.26918 -0.02825,0.43191v0.92011c0,0.10011 0.00305,0.2003 0.00993,0.30041c0.00611,0.10019 0.02825,0.18152 0.06567,0.24413c0.04989,0.07509 0.12498,0.13142 0.22527,0.16899c0.10004,0.02505 0.23444,0.03444 0.40396,0.02818c0.16876,-0.00626 0.32225,-0.00939 0.45971,-0.00939h1.74644c0.26269,0 0.49102,0.00939 0.68498,0.02818c0.19396,0.01879 0.32225,0.13455 0.38487,0.34738c0.0252,0.05002 0.03131,0.10011 0.01909,0.15021c-0.01273,0.05004 -0.01273,0.10637 0,0.16899c0.0252,0.07507 0.03436,0.1596 0.02825,0.25353c-0.00611,0.09385 -0.00916,0.18457 -0.00916,0.27224v9.17303c0,0.15655 0.03131,0.28484 0.09393,0.38487c0.06185,0.07484 0.15273,0.11913 0.27185,0.13135c0.11913,0.01222 0.24742,0.01833 0.38487,0.01833h1.596c0.11302,0 0.21305,-0.01222 0.30087,-0.03742c0.13745,-0.06262 0.21535,-0.16571 0.23444,-0.30927c0.01909,-0.14433 0.02825,-0.31615 0.02825,-0.51698v-8.8439c0,-0.07514 -0.00305,-0.1596 -0.00916,-0.25353c-0.00687,-0.09385 -0.00305,-0.17839 0.00916,-0.25345c0.02495,-0.06262 0.03131,-0.11895 0.01909,-0.16899c-0.01273,-0.05009 -0.01273,-0.10643 0,-0.16899c0.06185,-0.21283 0.18404,-0.32859 0.36578,-0.34738c0.18175,-0.01879 0.39709,-0.02818 0.64756,-0.02818h1.9152c0.26345,0 0.48873,-0.00626 0.67658,-0.01879c0.18785,-0.01252 0.31309,-0.12516 0.37571,-0.33799c0.02444,-0.07514 0.03436,-0.15334 0.02749,-0.23474c-0.00611,-0.08133 -0.00916,-0.16586 -0.00916,-0.25353v-0.92003c0,-0.06262 -0.00611,-0.11895 -0.01833,-0.16899v-0.09393c-0.01298,-0.06262 -0.02825,-0.12203 -0.04735,-0.17839c-0.01909,-0.05636 -0.04658,-0.09698 -0.08476,-0.12203c-0.10004,-0.06262 -0.22833,-0.09706 -0.38487,-0.10332c-0.15629,-0.00626 -0.31589,-0.00939 -0.4788,-0.00939zM239.48862,263.1607h9.52025c0.16265,0 0.32225,0.00313 0.4788,0.00939c0.1568,0.00626 0.28509,0.0407 0.38487,0.10332c0.03767,0.02505 0.06593,0.06572 0.08476,0.12203c0.01909,0.05636 0.03436,0.11577 0.04735,0.17839v0.09393c0.01222,0.05002 0.01833,0.10637 0.01833,0.16899v0.92003c0,0.08767 0.00305,0.1722 0.00916,0.25353c0.00687,0.0814 -0.00305,0.1596 -0.02749,0.23474c-0.06262,0.21283 -0.18785,0.32546 -0.37571,0.33799c-0.18785,0.01252 -0.41313,0.01879 -0.67582,0.01879h-1.91596c-0.24971,0 -0.46582,0.00939 -0.64756,0.02818c-0.18175,0.01879 -0.30316,0.13455 -0.36578,0.34738c-0.01273,0.06257 -0.01273,0.1189 0,0.16899c0.01222,0.05002 0.00611,0.10637 -0.01909,0.16899c-0.01222,0.07507 -0.01604,0.1596 -0.00916,0.25345c0.00611,0.09393 0.00916,0.17839 0.00916,0.25353v8.8439c0,0.20084 -0.00916,0.37265 -0.02825,0.51698c-0.01833,0.14356 -0.09698,0.24665 -0.23444,0.30927c-0.08782,0.0252 -0.18785,0.03742 -0.30087,0.03742h-1.596c-0.13745,0 -0.26575,-0.00611 -0.38487,-0.01833c-0.11913,-0.01222 -0.20924,-0.05651 -0.27185,-0.13135c-0.06262,-0.10004 -0.09393,-0.22833 -0.09393,-0.38487v-9.17303c0,-0.08767 0.00305,-0.17839 0.00916,-0.27224c0.00611,-0.09393 -0.00305,-0.17846 -0.02825,-0.25353c-0.01273,-0.06262 -0.01273,-0.11895 0,-0.16899c0.01222,-0.05009 0.00611,-0.10019 -0.01909,-0.15021c-0.06262,-0.21283 -0.19091,-0.32859 -0.38487,-0.34738c-0.19396,-0.01879 -0.42229,-0.02818 -0.68498,-0.02818h-1.74644c-0.13745,0 -0.29095,0.00313 -0.45971,0.00939c-0.16953,0.00626 -0.30393,-0.00313 -0.40396,-0.02818c-0.10029,-0.03757 -0.17538,-0.0939 -0.22527,-0.16899c-0.03742,-0.06262 -0.05956,-0.14395 -0.06567,-0.24413c-0.00611,-0.10011 -0.00993,-0.2003 -0.00993,-0.30041v-0.92011c0,-0.16273 0.00993,-0.30668 0.02825,-0.43191c0.01884,-0.12519 0.0784,-0.21906 0.17869,-0.28163c0.03742,-0.02505 0.10615,-0.05009 0.20618,-0.07514zM349.15825,276.11755c0.0252,0.07484 0.02215,0.14356 -0.00916,0.20618c-0.03131,0.06262 -0.06567,0.10615 -0.10385,0.13135c-0.07484,0.06262 -0.17793,0.09087 -0.30927,0.08476c-0.13135,-0.00611 -0.26651,-0.00993 -0.40396,-0.00993h-1.03244c-0.20084,0 -0.37571,-0.00916 -0.52615,-0.02749c-0.15044,-0.01909 -0.26269,-0.09087 -0.33829,-0.21611c-0.10004,-0.16265 -0.15578,-0.36349 -0.16876,-0.60098c-0.01222,-0.23775 -0.04353,-0.46302 -0.09393,-0.67582c0,-0.0504 -0.00305,-0.09698 -0.00916,-0.14127c-0.00611,-0.04353 -0.00916,-0.084 -0.00916,-0.12218c-0.03818,-0.14967 -0.05651,-0.30927 -0.05651,-0.4788c0,-0.16902 -0.01247,-0.32225 -0.03742,-0.45971c-0.01298,-0.03742 -0.01909,-0.09393 -0.01909,-0.16876c-0.0252,-0.13822 -0.04658,-0.27873 -0.06567,-0.42305c-0.01909,-0.14356 -0.04658,-0.28484 -0.08476,-0.42229c-0.10004,-0.28789 -0.2184,-0.54447 -0.35662,-0.76975c-0.13745,-0.22553 -0.33142,-0.39455 -0.58189,-0.50705c-0.06262,-0.02495 -0.12524,-0.04378 -0.18785,-0.05651c-0.06262,-0.01222 -0.13135,-0.03131 -0.20618,-0.05575c-0.22604,-0.0756 -0.48567,-0.11302 -0.77967,-0.11302h-2.41309c-0.09978,0.02495 -0.18735,0.04378 -0.26269,0.05651c-0.07484,0.01222 -0.13745,0.04964 -0.18785,0.11225c-0.10004,0.12524 -0.14356,0.3192 -0.13135,0.58265c0.01222,0.26269 0.01909,0.50018 0.01909,0.71324v2.40316c0,0.1008 -0.00305,0.20389 -0.00993,0.31004c-0.00611,0.10691 -0.00916,0.21 -0.00916,0.31004v0.27185c0,0.08171 -0.01222,0.15349 -0.03742,0.21611c-0.03767,0.11302 -0.11276,0.18811 -0.22527,0.22527c-0.06262,0.0252 -0.13822,0.03742 -0.22527,0.03742h-1.12713c-0.20007,0 -0.41313,0.00382 -0.6384,0.00993c-0.22527,0.00611 -0.39404,-0.03436 -0.50705,-0.12218c-0.10004,-0.06262 -0.14967,-0.17869 -0.14967,-0.34745v-11.91425c0,-0.13768 -0.00305,-0.28171 -0.00993,-0.43191c-0.00611,-0.15021 0.02215,-0.26911 0.08476,-0.35677c0.0504,-0.07507 0.14433,-0.13768 0.28178,-0.18778c0.0252,-0.01252 0.05345,-0.01565 0.084,-0.00939c0.03131,0.00626 0.05956,0.00313 0.08476,-0.00939h6.38476c0.20007,0 0.39098,0.00313 0.57273,0.00939c0.18098,0.00626 0.35356,0.02818 0.51622,0.06575c0.06262,0.02505 0.12829,0.03757 0.19702,0.03757c0.06873,0 0.1344,0.01252 0.19702,0.03757l0.26269,0.07507c0.08782,0.02505 0.17564,0.05636 0.26345,0.09393c0.31233,0.13768 0.60098,0.30668 0.86367,0.50698c0.26269,0.2003 0.48185,0.43184 0.65673,0.69476c0.0504,0.06262 0.09087,0.12829 0.12218,0.19717c0.03131,0.0688 0.07255,0.13455 0.12218,0.19717c0.10004,0.17525 0.17564,0.35677 0.22527,0.54455c0.0504,0.18775 0.10665,0.39429 0.16876,0.61961c0.01298,0.05009 0.01604,0.10019 0.00993,0.15021c-0.00611,0.05009 0.00305,0.10019 0.02825,0.15028v0.16899c0.02444,0.10011 0.03131,0.22214 0.01833,0.36616c-0.01222,0.14395 -0.03131,0.25971 -0.05651,0.34738c-0.02495,0.10014 -0.03742,0.19088 -0.03742,0.27224c0,0.0814 -0.01222,0.16586 -0.03742,0.25353c-0.06262,0.18778 -0.12524,0.36616 -0.18785,0.53516c-0.06262,0.16899 -0.14356,0.32859 -0.2436,0.4788c-0.0252,0.03757 -0.05651,0.07827 -0.09393,0.12203c-0.03818,0.04383 -0.06949,0.08453 -0.09393,0.12211c-0.03818,0.05002 -0.07865,0.10011 -0.12218,0.15021c-0.04429,0.05009 -0.09087,0.09385 -0.14127,0.13142l-0.22527,0.18755c-0.07484,0.06262 -0.15655,0.12524 -0.2436,0.18785c-0.0504,0.03742 -0.10004,0.07865 -0.15044,0.12218c-0.0504,0.04353 -0.08782,0.09698 -0.11302,0.1596c-0.02444,0.07484 -0.01222,0.13745 0.03818,0.18785c0.04964,0.0504 0.09393,0.08782 0.13135,0.11225l0.37571,0.30087c0.12447,0.10004 0.23138,0.21916 0.3192,0.35662c0.14967,0.21305 0.2688,0.43222 0.35662,0.65749c0.08705,0.22527 0.16876,0.48185 0.2436,0.76975c0.0252,0.11225 0.04124,0.23138 0.04735,0.35662c0.00611,0.12524 0.02215,0.24436 0.04658,0.35662c0,0.0756 0.00305,0.14738 0.00993,0.21611c0.00611,0.06873 0.00916,0.14127 0.00916,0.21611c0.01222,0.04964 0.01527,0.10309 0.00916,0.1596c-0.00611,0.05651 -0.00305,0.11607 0.00993,0.17793c0.01222,0.0504 0.01527,0.1008 0.00916,0.15044c-0.00611,0.0504 -0.00305,0.10691 0.00916,0.16953c0.0252,0.12447 0.03742,0.25658 0.03742,0.39404c0,0.13745 0.01247,0.2688 0.03742,0.39404l0.05651,0.33829l0.0756,0.33753c0.02444,0.11302 0.04964,0.21916 0.07484,0.31996zM361.61164,263.1607h-1.89687c-0.02444,0.01252 -0.04964,0.01565 -0.07484,0.00939c-0.0252,-0.00626 -0.0504,-0.00313 -0.07484,0.00939c-0.11302,0.02505 -0.20084,0.07514 -0.26345,0.15021c-0.06262,0.08767 -0.07204,0.21911 -0.02825,0.39434c0.04429,0.17525 0.07865,0.30675 0.10385,0.39434c0.08705,0.27544 0.16265,0.55081 0.22527,0.82618c0.06262,0.27544 0.13745,0.54455 0.22527,0.80747c0.0252,0.07507 0.04353,0.15021 0.05651,0.22535c0.01222,0.07507 0.03131,0.15021 0.05575,0.22527c0.11302,0.36303 0.21,0.73233 0.29171,1.10788c0.08095,0.37556 0.17793,0.74485 0.29095,1.10788c0.04964,0.12516 0.08705,0.2504 0.11225,0.37556c0.0252,0.12516 0.05651,0.2504 0.09393,0.37556c0.03742,0.12516 0.07178,0.25345 0.10309,0.38457c0.03131,0.13211 0.06567,0.2604 0.10385,0.38564c0.06262,0.18709 0.1092,0.37189 0.14051,0.55364c0.03131,0.18175 0.07865,0.35967 0.14051,0.53531c0.0252,0.04964 0.03818,0.09393 0.03818,0.13135c0,0.03742 0.00611,0.07484 0.01833,0.11225c0.06262,0.18785 0.11582,0.37876 0.1596,0.57273c0.04429,0.19396 0.09698,0.37876 0.1596,0.5544c0.01298,0.04964 0.01909,0.09698 0.01909,0.14051c0,0.04429 0.01222,0.09087 0.03742,0.14127c0.06262,0.21229 0.11913,0.42535 0.16876,0.6384c0.0504,0.21229 0.11302,0.42535 0.18785,0.6384c0.0252,0.08705 0.04124,0.16571 0.04735,0.23444c0.00611,0.06873 0.02138,0.14127 0.04658,0.21611c0.06262,0.21305 0.12218,0.42535 0.17869,0.6384c0.05651,0.21305 0.11531,0.41924 0.17793,0.61931c0.03818,0.13822 0.06949,0.27873 0.09393,0.42305c0.0252,0.14356 0.08782,0.24665 0.18785,0.30927c0.06262,0.0504 0.12524,0.07865 0.18785,0.08476c0.06262,0.00611 0.13745,0.02215 0.22527,0.04658h2.02822c0.12524,0 0.23138,-0.02444 0.3192,-0.07484c0.10004,-0.06262 0.16571,-0.14356 0.19702,-0.24436c0.03131,-0.10004 0.06567,-0.21229 0.10309,-0.33753c0.0504,-0.17564 0.09087,-0.35051 0.12218,-0.52615c0.03131,-0.17487 0.07865,-0.35051 0.14127,-0.52538c0.06262,-0.20007 0.1092,-0.39785 0.14051,-0.59182c0.03131,-0.19396 0.07789,-0.39098 0.14051,-0.59105c0.16291,-0.56356 0.30393,-1.12687 0.42305,-1.68993c0.11862,-0.56356 0.25938,-1.12687 0.42229,-1.68993c0.07484,-0.27542 0.13745,-0.55407 0.18785,-0.83595c0.04964,-0.28163 0.11913,-0.55387 0.20618,-0.81679c0.0252,-0.08767 0.05651,-0.19404 0.09393,-0.3192c0.03742,-0.12524 0.10004,-0.2003 0.18785,-0.22535c0.01298,-0.01252 0.03742,-0.01252 0.0756,0c0.04964,0.02505 0.08705,0.05009 0.11225,0.07514c0.0504,0.07507 0.08476,0.15647 0.10309,0.24406c0.01909,0.08767 0.04735,0.18152 0.08476,0.28171c0.06262,0.2003 0.11225,0.40053 0.15044,0.60083c0.03742,0.2003 0.08705,0.40679 0.14967,0.61984c0.0504,0.17513 0.09113,0.34415 0.12218,0.50705c0.03131,0.16265 0.07865,0.33142 0.14127,0.50705c0.08705,0.31233 0.16265,0.62847 0.22527,0.94767c0.06262,0.3192 0.14356,0.62924 0.2436,0.93011c0.03818,0.11225 0.06567,0.22833 0.08476,0.34669c0.01909,0.11913 0.04735,0.2352 0.08476,0.34745c0.04964,0.16265 0.09087,0.32302 0.12218,0.4788c0.03131,0.15655 0.07178,0.31004 0.12142,0.46047c0.06262,0.25047 0.11913,0.49713 0.16953,0.74149c0.04964,0.24436 0.11225,0.49178 0.18785,0.74149c0.03742,0.1008 0.06873,0.19778 0.09316,0.29171c0.0252,0.09393 0.0756,0.17182 0.15044,0.23444c0.08782,0.06262 0.19396,0.09698 0.3192,0.10309c0.12524,0.00611 0.25658,0.00916 0.3948,0.00916h1.57691c0.12524,0 0.23138,-0.01222 0.3192,-0.03742c0.15044,-0.06262 0.24436,-0.16265 0.28178,-0.30011c0.03767,-0.13796 0.08145,-0.28815 0.13135,-0.45055c0.07484,-0.21305 0.14127,-0.43527 0.19702,-0.66665c0.05651,-0.23138 0.11607,-0.4536 0.17869,-0.66665c0.0252,-0.08782 0.04353,-0.16876 0.05651,-0.24436c0.01222,-0.07484 0.03131,-0.15655 0.05575,-0.2436c0.16342,-0.46353 0.29782,-0.93927 0.40396,-1.42724c0.10615,-0.48873 0.2352,-0.97058 0.38487,-1.44633c0.03742,-0.12524 0.07178,-0.24665 0.10309,-0.36578c0.03131,-0.11913 0.06644,-0.24131 0.10385,-0.36655c0.06262,-0.17487 0.1092,-0.35356 0.14051,-0.53455c0.03131,-0.18175 0.07865,-0.36028 0.14127,-0.53554c0.02444,-0.06254 0.03742,-0.1189 0.03742,-0.16899c0,-0.05004 0.01247,-0.10637 0.03742,-0.16899c0.06262,-0.16273 0.1092,-0.32546 0.14051,-0.48819c0.03131,-0.16273 0.07865,-0.32546 0.14127,-0.48819c0.0252,-0.06262 0.04047,-0.12524 0.04658,-0.18778c0.00611,-0.06262 0.02215,-0.12524 0.04735,-0.18778c0.06262,-0.21283 0.12218,-0.43504 0.17793,-0.66658c0.05651,-0.23161 0.11607,-0.45383 0.17869,-0.66665c0.0252,-0.07507 0.04353,-0.14708 0.05651,-0.21588c0.01222,-0.06888 0.03131,-0.14089 0.05575,-0.21596c0.1008,-0.30049 0.1848,-0.6103 0.25353,-0.9295c0.06949,-0.3192 0.15349,-0.62282 0.25353,-0.91071c0.03818,-0.12516 0.06262,-0.26292 0.0756,-0.41313c0.01222,-0.15021 -0.04429,-0.25658 -0.16953,-0.3192c-0.08705,-0.03757 -0.19091,-0.05636 -0.30927,-0.05636h-1.4364c-0.16342,0 -0.30698,0.00626 -0.43222,0.01879c-0.12524,0.01252 -0.23164,0.05009 -0.3192,0.11271c-0.07535,0.06257 -0.12855,0.15644 -0.1596,0.28163l-0.08476,0.33799c-0.04964,0.17525 -0.09393,0.35051 -0.13135,0.52576c-0.03742,0.17525 -0.08095,0.35051 -0.13135,0.52576c-0.01222,0.06262 -0.01909,0.11584 -0.01909,0.1596c0,0.04383 -0.01222,0.09706 -0.03742,0.15968c-0.06262,0.20023 -0.1092,0.40053 -0.14051,0.60083c-0.03131,0.2003 -0.07865,0.4006 -0.14127,0.60091c-0.16265,0.55081 -0.29705,1.10162 -0.4032,1.65243c-0.10691,0.55081 -0.24131,1.10162 -0.40396,1.65251c-0.06262,0.20007 -0.1092,0.40015 -0.14051,0.60098c-0.03131,0.20007 -0.07865,0.40015 -0.14127,0.60098c-0.03742,0.12447 -0.06873,0.24665 -0.09393,0.36578c-0.02444,0.11913 -0.07484,0.22833 -0.14967,0.32836c-0.01298,0.01298 -0.0252,0.02215 -0.03818,0.02825c-0.01222,0.00611 -0.02444,0.01604 -0.03742,0.02825h-0.07484c-0.04989,-0.02495 -0.0812,-0.04378 -0.09393,-0.05651c-0.06262,-0.08705 -0.10615,-0.18404 -0.13135,-0.29095c-0.0252,-0.10615 -0.05651,-0.22222 -0.09393,-0.34745c-0.06262,-0.17487 -0.10996,-0.36273 -0.14127,-0.5628c-0.03131,-0.20084 -0.07789,-0.3948 -0.14051,-0.58265c-0.13745,-0.46297 -0.25633,-0.93543 -0.35662,-1.41739c-0.10004,-0.48201 -0.21916,-0.95455 -0.35662,-1.41769c-0.0504,-0.13776 -0.08782,-0.27231 -0.11302,-0.40373c-0.0252,-0.13142 -0.05651,-0.26605 -0.09393,-0.40373c-0.04964,-0.16273 -0.09087,-0.32546 -0.12218,-0.48819c-0.03131,-0.16273 -0.07178,-0.32546 -0.12218,-0.48819c-0.06185,-0.22535 -0.11836,-0.45383 -0.16876,-0.68544c-0.04964,-0.23153 -0.10615,-0.46001 -0.16876,-0.68536c-0.03742,-0.12516 -0.06873,-0.24719 -0.09393,-0.36616c-0.0252,-0.1189 -0.08171,-0.20969 -0.16876,-0.27224c-0.08782,-0.06262 -0.19091,-0.09706 -0.31004,-0.10332c-0.11913,-0.00626 -0.24742,-0.00939 -0.38487,-0.00939h-1.44633c-0.11225,0 -0.21229,0.01252 -0.30011,0.03757c-0.13745,0.06262 -0.22527,0.15334 -0.26269,0.27231c-0.03767,0.11892 -0.08145,0.24724 -0.13135,0.38495c-0.0504,0.17525 -0.09087,0.35051 -0.12218,0.52576c-0.03131,0.17525 -0.07865,0.35051 -0.14127,0.52576c-0.10004,0.35051 -0.18785,0.70415 -0.26269,1.06092c-0.07484,0.35677 -0.16876,0.71041 -0.28178,1.06092l-0.14967,0.52576c0,0.05009 -0.01273,0.12521 -0.03818,0.22535c-0.03742,0.11264 -0.06873,0.2284 -0.09393,0.34738c-0.02444,0.1189 -0.05575,0.23467 -0.09393,0.34738c-0.01222,0.06257 -0.02469,0.1189 -0.03742,0.16899l-0.03742,0.15021c-0.04964,0.16273 -0.09087,0.32859 -0.12218,0.49759c-0.03131,0.16899 -0.07789,0.33508 -0.14051,0.49774c-0.01298,0.06262 -0.0252,0.12218 -0.03742,0.17793c-0.01298,0.05651 -0.0252,0.11607 -0.03742,0.17869c-0.06262,0.16265 -0.10996,0.32836 -0.14127,0.49789c-0.03131,0.16876 -0.07178,0.33447 -0.12218,0.49713l-0.09393,0.28178c-0.03742,0.11302 -0.09393,0.18175 -0.16876,0.20695c-0.0252,0.01222 -0.04047,0.01527 -0.04658,0.00916c-0.00687,-0.00611 -0.02215,-0.00916 -0.04735,-0.00916c-0.10004,-0.1008 -0.16265,-0.20389 -0.18785,-0.31004c-0.0252,-0.10615 -0.06262,-0.23444 -0.11225,-0.38487c-0.0504,-0.18785 -0.09113,-0.37571 -0.12218,-0.56356c-0.03131,-0.18785 -0.07865,-0.37571 -0.14127,-0.56356c-0.11225,-0.41275 -0.20924,-0.83213 -0.29095,-1.25779c-0.08095,-0.42557 -0.1848,-0.84496 -0.31004,-1.25809c-0.03742,-0.15021 -0.06873,-0.30041 -0.09316,-0.45062c-0.0252,-0.15021 -0.06262,-0.29415 -0.11302,-0.43191c-0.0504,-0.17525 -0.09087,-0.35051 -0.12218,-0.52576c-0.03131,-0.17525 -0.07178,-0.35051 -0.12218,-0.52576c-0.01222,-0.06262 -0.01833,-0.11577 -0.01833,-0.1596c0,-0.04383 -0.01298,-0.09698 -0.03742,-0.1596c-0.0504,-0.17525 -0.09393,-0.35364 -0.13211,-0.53516c-0.03742,-0.18152 -0.08095,-0.3599 -0.13135,-0.53516c-0.03742,-0.13768 -0.07178,-0.27231 -0.10309,-0.40373c-0.03131,-0.13142 -0.09698,-0.23474 -0.19702,-0.30981c-0.07484,-0.06262 -0.18175,-0.09393 -0.3192,-0.09393zM419.85571,276.32373c0.03131,-0.06262 0.03436,-0.13135 0.00916,-0.20618c-0.0252,-0.1008 -0.0504,-0.20695 -0.07484,-0.31996l-0.0756,-0.33753l-0.05575,-0.33829c-0.02545,-0.12524 -0.03818,-0.25658 -0.03818,-0.39404c0,-0.13745 -0.01222,-0.26956 -0.03742,-0.39404c-0.01222,-0.06262 -0.01527,-0.11913 -0.00916,-0.16953c0.00611,-0.04964 0.00305,-0.10004 -0.00916,-0.15044c-0.01298,-0.06185 -0.01604,-0.12142 -0.00993,-0.17793c0.00611,-0.05651 0.00305,-0.10996 -0.00916,-0.1596c0,-0.07484 -0.00305,-0.14738 -0.00916,-0.21611c-0.00687,-0.06873 -0.00993,-0.14051 -0.00993,-0.21611c-0.02444,-0.11225 -0.04047,-0.23138 -0.04658,-0.35662c-0.00611,-0.12524 -0.02215,-0.24436 -0.04735,-0.35662c-0.07484,-0.28789 -0.15578,-0.54447 -0.2436,-0.76975c-0.08782,-0.22527 -0.20695,-0.44444 -0.35662,-0.65749c-0.08782,-0.13745 -0.19473,-0.25658 -0.3192,-0.35662l-0.37571,-0.30087c-0.03742,-0.02444 -0.08171,-0.06185 -0.13135,-0.11225c-0.0504,-0.0504 -0.06262,-0.11302 -0.03818,-0.18785c0.0252,-0.06262 0.06262,-0.11607 0.11302,-0.1596c0.0504,-0.04353 0.10004,-0.08476 0.15044,-0.12218c0.08705,-0.06262 0.16876,-0.12524 0.2436,-0.18785l0.22527,-0.18755c0.0504,-0.03757 0.09698,-0.08133 0.14127,-0.13142c0.04353,-0.05009 0.08476,-0.10019 0.12218,-0.15021c0.02444,-0.03757 0.05575,-0.07827 0.09393,-0.12211c0.03742,-0.04376 0.06873,-0.08446 0.09393,-0.12203c0.10004,-0.15021 0.18098,-0.30981 0.2436,-0.4788c0.06262,-0.16899 0.12524,-0.34738 0.18785,-0.53516c0.0252,-0.08767 0.03742,-0.17212 0.03742,-0.25353c0,-0.08135 0.01273,-0.1721 0.03818,-0.27224c0.02444,-0.08767 0.04353,-0.20343 0.05575,-0.34738c0.01298,-0.14402 0.00611,-0.26605 -0.01833,-0.36616v-0.16899c-0.0252,-0.05009 -0.03436,-0.10019 -0.02825,-0.15028c0.00611,-0.05002 0.00305,-0.10011 -0.00916,-0.15021c-0.06262,-0.22532 -0.11913,-0.43186 -0.16953,-0.61961c-0.04964,-0.18778 -0.12524,-0.36929 -0.22527,-0.54455c-0.04964,-0.06262 -0.09087,-0.12837 -0.12218,-0.19717c-0.03131,-0.06888 -0.07178,-0.13455 -0.12218,-0.19717c-0.17487,-0.26292 -0.39404,-0.49445 -0.65673,-0.69476c-0.26269,-0.2003 -0.55058,-0.36929 -0.86367,-0.50698c-0.08782,-0.03757 -0.17564,-0.06888 -0.26345,-0.09393l-0.26269,-0.07507c-0.06262,-0.02505 -0.12829,-0.03757 -0.19702,-0.03757c-0.06873,0 -0.1344,-0.01252 -0.19702,-0.03757c-0.16265,-0.03757 -0.33524,-0.05949 -0.51622,-0.06575c-0.18175,-0.00626 -0.37265,-0.00939 -0.57273,-0.00939h-6.38476c-0.0252,0.01252 -0.05269,0.01565 -0.084,0.00939c-0.03131,-0.00626 -0.05956,-0.00313 -0.08476,0.00939c-0.13745,0.05009 -0.23138,0.11271 -0.28178,0.18778c-0.06262,0.08767 -0.09087,0.20656 -0.08476,0.35677c0.00687,0.15021 0.00993,0.29423 0.00993,0.43191v11.91425c0,0.16876 0.04964,0.28484 0.14967,0.34745c0.11302,0.08782 0.28178,0.12829 0.50705,0.12218c0.22527,-0.00611 0.43833,-0.00993 0.6384,-0.00993h1.12713c0.08705,0 0.16265,-0.01222 0.22527,-0.03742c0.11251,-0.03716 0.1876,-0.11225 0.22527,-0.22527c0.0252,-0.06262 0.03742,-0.1344 0.03742,-0.21611v-0.27185c0,-0.10004 0.00305,-0.20313 0.00916,-0.31004c0.00687,-0.10615 0.00993,-0.20924 0.00993,-0.31004v-2.40316c0,-0.21305 -0.00687,-0.45055 -0.01909,-0.71324c-0.01222,-0.26345 0.03131,-0.45742 0.13135,-0.58265c0.0504,-0.06262 0.11302,-0.10004 0.18785,-0.11225c0.07535,-0.01273 0.16291,-0.03156 0.26269,-0.05651h2.41309c0.294,0 0.55364,0.03742 0.77967,0.11302c0.07484,0.02444 0.14356,0.04353 0.20618,0.05575c0.06262,0.01273 0.12524,0.03156 0.18785,0.05651c0.25047,0.11251 0.44444,0.28153 0.58189,0.50705c0.13822,0.22527 0.25658,0.48185 0.35662,0.76975c0.03818,0.13745 0.06567,0.27873 0.08476,0.42229c0.01909,0.14433 0.04047,0.28484 0.06567,0.42305c0,0.07484 0.00611,0.13135 0.01909,0.16876c0.02495,0.13745 0.03742,0.29069 0.03742,0.45971c0,0.16953 0.01833,0.32913 0.05651,0.4788c0,0.03818 0.00305,0.07865 0.00916,0.12218c0.00611,0.04429 0.00916,0.09087 0.00916,0.14127c0.0504,0.2128 0.08171,0.43807 0.09393,0.67582c0.01298,0.23749 0.06873,0.43833 0.16953,0.60098c0.07484,0.12524 0.18709,0.19702 0.33753,0.21611c0.15044,0.01833 0.32531,0.02749 0.52615,0.02749h1.03244c0.13745,0 0.27262,0.00382 0.40396,0.00993c0.13135,0.00611 0.23444,-0.02215 0.30927,-0.08476c0.03818,-0.0252 0.07255,-0.06873 0.10385,-0.13135zM295.03018,263.17948h8.09302c0.13822,0 0.26956,0.00626 0.3948,0.01879c0.12524,0.01252 0.21916,0.05636 0.28178,0.13142c0.04964,0.06262 0.084,0.14715 0.10309,0.25353c0.01833,0.10637 0.02825,0.22535 0.02825,0.35677c0,0.13142 -0.00305,0.26292 -0.00993,0.39434c-0.00611,0.13142 -0.00916,0.25345 -0.00916,0.36616c0,0.08759 0.00305,0.17525 0.00916,0.26284c0.00687,0.08767 0.00382,0.16899 -0.00916,0.24413c-0.0252,0.06262 -0.04658,0.12203 -0.06567,0.17839c-0.01833,0.05636 -0.05345,0.10324 -0.10309,0.14081c-0.10029,0.07514 -0.27236,0.10958 -0.51622,0.10332c-0.24436,-0.00626 -0.45436,-0.00939 -0.62924,-0.00939h-3.62422c-0.20007,0 -0.44138,-0.00313 -0.72316,-0.00939c-0.28102,-0.00626 -0.48491,0.02818 -0.61015,0.10324c-0.07484,0.05009 -0.13745,0.14395 -0.18785,0.28171c-0.02495,0.08761 -0.03436,0.20028 -0.02825,0.33799c0.00687,0.13768 0.00993,0.25658 0.00993,0.35677v0.90132c0,0.06254 -0.00305,0.13768 -0.00993,0.22527c-0.00611,0.08767 -0.00305,0.16281 0.00993,0.22535v0.20656c0.0252,0.11264 0.05269,0.20656 0.084,0.28163c0.03156,0.07514 0.09749,0.13147 0.19778,0.16899c0.06262,0.02505 0.13771,0.0407 0.22527,0.04696c0.08705,0.00626 0.18098,0.00939 0.28178,0.00939h3.32335c0.10004,0 0.21611,-0.00313 0.34745,-0.00939c0.13135,-0.00626 0.26269,-0.00626 0.39404,0c0.13135,0.00626 0.25047,0.01565 0.35662,0.02818c0.10691,0.01252 0.1848,0.03757 0.2352,0.07514c0.12524,0.08759 0.1848,0.25345 0.17793,0.49759c-0.00611,0.24436 -0.00916,0.46658 -0.00916,0.66665c0,0.10004 0.00305,0.20924 0.00916,0.32836c0.00662,0.11913 -0.0028,0.22884 -0.02825,0.32913c-0.04964,0.13745 -0.11836,0.23138 -0.20618,0.28102c-0.08782,0.0504 -0.25658,0.07255 -0.50705,0.06567c-0.25047,-0.00611 -0.45665,-0.00916 -0.61931,-0.00916h-3.07975c-0.23825,0 -0.46964,0.00611 -0.69491,0.01909c-0.22527,0.01222 -0.36884,0.10004 -0.43145,0.26269c-0.02545,0.03767 -0.03818,0.0784 -0.03818,0.12218c0,0.04353 -0.00611,0.084 -0.01833,0.12218v3.62345c0,0.17564 0.00305,0.39175 0.00916,0.64833c0.00611,0.25658 -0.02215,0.44138 -0.08476,0.55364c-0.03742,0.06262 -0.08705,0.10309 -0.14967,0.12218c-0.06262,0.01884 -0.12524,0.04073 -0.18785,0.06567c-0.08782,0.0252 -0.18175,0.03131 -0.28178,0.01909c-0.10004,-0.01298 -0.20007,-0.01909 -0.30011,-0.01909h-1.08971c-0.13745,0 -0.26575,-0.00305 -0.38487,-0.00916c-0.11836,-0.00611 -0.21611,-0.04047 -0.29095,-0.10309c-0.08782,-0.06262 -0.1344,-0.1596 -0.14051,-0.29171c-0.00687,-0.13135 -0.00993,-0.26575 -0.00993,-0.4032v-11.22912c0,-0.17525 -0.00305,-0.38182 -0.00916,-0.61969c-0.00611,-0.2378 0.02215,-0.40679 0.08476,-0.50698c0.04964,-0.08759 0.14356,-0.15021 0.28178,-0.18778c0.02444,-0.01252 0.04964,-0.01565 0.07484,-0.00939c0.0252,0.00626 0.0504,0.00313 0.07484,-0.00939zM323.89716,269.91147c0,0.11862 -0.01273,0.20924 -0.03818,0.27185v0.32913c0,0.05575 -0.00611,0.1092 -0.01833,0.1596l-0.05651,0.45055c-0.04964,0.16265 -0.09087,0.32531 -0.12218,0.48796c-0.03131,0.16265 -0.07789,0.31309 -0.14051,0.45055c-0.21305,0.53836 -0.47269,0.97669 -0.77967,1.31422c-0.30622,0.33829 -0.72927,0.61396 -1.26687,0.82625c-0.11302,0.0504 -0.23215,0.08476 -0.35738,0.10385c-0.12524,0.01833 -0.24971,0.04047 -0.37495,0.06567c-0.06262,0.02444 -0.11913,0.03436 -0.16953,0.02825c-0.04964,-0.00687 -0.10615,-0.00382 -0.16876,0.00916h-0.39404c-0.0756,0 -0.15044,-0.01298 -0.22527,-0.03742c-0.06262,-0.01298 -0.12218,-0.01604 -0.17869,-0.00993c-0.05651,0.00687 -0.11607,-0.00305 -0.17869,-0.02749c-0.17487,-0.0504 -0.34058,-0.1008 -0.49713,-0.15044c-0.15655,-0.0504 -0.30393,-0.11913 -0.44138,-0.20695c-0.07535,-0.03716 -0.14738,-0.07458 -0.21611,-0.11225c-0.06873,-0.03742 -0.1344,-0.08782 -0.19702,-0.15044c-0.30087,-0.21305 -0.55058,-0.49102 -0.75142,-0.83542c-0.20007,-0.3444 -0.36884,-0.71705 -0.50705,-1.1172c-0.04964,-0.12524 -0.084,-0.25658 -0.10309,-0.3948c-0.01833,-0.13745 -0.04658,-0.27491 -0.08476,-0.41313c0,-0.04964 -0.00305,-0.09698 -0.00916,-0.14051c-0.00611,-0.04353 -0.00916,-0.09087 -0.00916,-0.14051c-0.01298,-0.0504 -0.01909,-0.10385 -0.01909,-0.1596c0,-0.05651 -0.00611,-0.10996 -0.01833,-0.1596v-0.20695c-0.0252,-0.06262 -0.03436,-0.17869 -0.02825,-0.34745c0.00611,-0.16876 0.02215,-0.28484 0.04658,-0.3473c0.01298,-0.06254 0.01298,-0.13142 0,-0.20656c-0.01222,-0.07507 -0.00611,-0.14395 0.01909,-0.20649c0.01222,-0.05009 0.01833,-0.09706 0.01833,-0.14089c0,-0.04376 0.00687,-0.09072 0.01909,-0.14081c0.03742,-0.13768 0.06567,-0.27224 0.08476,-0.40373c0.01833,-0.13142 0.04658,-0.26597 0.084,-0.40366c0.18785,-0.56333 0.43527,-1.04527 0.74225,-1.44587c0.30622,-0.4006 0.7224,-0.71354 1.24855,-0.93889c0.11225,-0.05009 0.23444,-0.09072 0.36578,-0.12203c0.13211,-0.03131 0.26651,-0.05949 0.40396,-0.08453c0.06262,-0.02505 0.11913,-0.03444 0.16876,-0.02818c0.0504,0.00626 0.10004,0.00313 0.15044,-0.00939c0.0252,-0.01252 0.05345,-0.01565 0.08476,-0.00939c0.03131,0.00626 0.05956,0.00313 0.084,-0.00939c0.92629,0 1.64945,0.19717 2.16873,0.59151c0.52004,0.39434 0.91713,0.91071 1.1928,1.54911c0.06262,0.13776 0.11225,0.27544 0.15044,0.41313l0.11225,0.41313c0.0252,0.07507 0.03742,0.14395 0.03742,0.20656c0.0252,0.08759 0.04124,0.17839 0.04735,0.27224c0.00611,0.09393 0.02138,0.19091 0.04658,0.2911c0.0252,0.05002 0.03436,0.09698 0.02825,0.14081c-0.00611,0.04383 -0.00305,0.09072 0.00916,0.14081v0.31912c0.0252,0.06262 0.03818,0.15349 0.03818,0.27262zM209.52429,267.91143c0.0252,-0.13768 0.03513,-0.30981 0.02825,-0.51637c-0.00611,-0.20656 -0.02825,-0.37869 -0.06567,-0.51637c-0.07484,-0.27544 -0.16876,-0.49453 -0.28178,-0.65726c-0.11225,-0.16273 -0.28102,-0.31294 -0.50629,-0.45062c-0.18785,-0.11271 -0.42,-0.19717 -0.69491,-0.25353c-0.27567,-0.05628 -0.57273,-0.09072 -0.89193,-0.10324c-0.3192,-0.01252 -0.64833,-0.01565 -0.98585,-0.00939c-0.33829,0.00626 -0.65749,0.00939 -0.9576,0.00939c-0.03742,0.01252 -0.07255,0.02192 -0.10385,0.02818c-0.03131,0.00626 -0.06567,0.00939 -0.10309,0.00939c-0.12524,0.05002 -0.20618,0.12516 -0.2436,0.22527c-0.0504,0.10019 -0.0756,0.23474 -0.0756,0.40373v2.74153c0,0.18152 0.03131,0.32233 0.09393,0.42244c0.04989,0.07514 0.12498,0.1315 0.22527,0.16907c0.10029,0.03752 0.21305,0.05941 0.33829,0.06567c0.12524,0.00626 0.25989,0.00626 0.40396,0c0.14356,-0.00626 0.27796,-0.00939 0.4032,-0.00939c0.6636,0 1.27069,-0.03131 1.82127,-0.09385c0.55135,-0.06262 0.97058,-0.28171 1.25847,-0.65726c0.07484,-0.11264 0.13745,-0.23467 0.18785,-0.36616c0.04964,-0.13142 0.10004,-0.2785 0.14967,-0.44123zM109.99552,265.94919c0,-0.13142 0.03123,-0.241 0.09385,-0.32859c0.05009,-0.07514 0.13768,-0.1315 0.26292,-0.16899c0.02505,-0.01252 0.05315,-0.01879 0.08446,-0.01879c0.03131,0 0.05949,-0.00626 0.08453,-0.01879h1.59608c0.17525,0 0.3599,-0.00313 0.55394,-0.00939c0.19404,-0.00626 0.36616,0.00939 0.51637,0.04696c0.10011,0 0.17525,0.00626 0.22535,0.01871c0.10011,0.02505 0.19404,0.04696 0.28163,0.06575c0.08761,0.01879 0.16899,0.0407 0.24413,0.06575c0.28789,0.13768 0.50698,0.32859 0.65719,0.57273c0.15021,0.24406 0.21283,0.57891 0.18778,1.00456c-0.02505,0.26284 -0.0814,0.47567 -0.16899,0.6384c-0.18778,0.31301 -0.46948,0.53203 -0.84496,0.65726c-0.13776,0.05002 -0.30049,0.08446 -0.48827,0.10324c-0.18778,0.01879 -0.38495,0.02818 -0.59144,0.02818c-0.20659,0 -0.41315,-0.00313 -0.61969,-0.00939c-0.20656,-0.00626 -0.40373,-0.00939 -0.59151,-0.00939c-0.11264,0 -0.2378,0.00313 -0.37548,0.00939c-0.13776,0.00626 -0.27231,0.00626 -0.40373,0c-0.1315,-0.00626 -0.2504,-0.02192 -0.35677,-0.04696c-0.10645,-0.02505 -0.18465,-0.0688 -0.23474,-0.13142c-0.02505,-0.05009 -0.04383,-0.10324 -0.05636,-0.1596c-0.01252,-0.05636 -0.03123,-0.12203 -0.05628,-0.19717v-0.18778c-0.01252,-0.06262 -0.01565,-0.14081 -0.00939,-0.23474c0.00626,-0.09385 0.00939,-0.18465 0.00939,-0.27224zM346.06018,267.64851c0.02444,-0.13768 0.02825,-0.30668 0.00916,-0.50698c-0.01884,-0.20028 -0.04073,-0.35048 -0.06567,-0.45062c-0.0252,-0.05009 -0.03742,-0.09393 -0.03742,-0.1315c0,-0.03752 -0.01247,-0.07507 -0.03742,-0.11264c-0.15044,-0.38808 -0.42611,-0.66971 -0.82625,-0.84496c-0.2128,-0.10014 -0.45691,-0.15647 -0.73233,-0.16899c-0.27567,-0.01252 -0.56356,-0.01879 -0.86367,-0.01879h-2.17865c-0.0252,0.02505 -0.04964,0.03444 -0.07484,0.02818c-0.0252,-0.00626 -0.0504,-0.00939 -0.0756,-0.00939c-0.14967,0.03749 -0.24971,0.10011 -0.30011,0.18778c-0.06262,0.10011 -0.09087,0.2284 -0.08476,0.38495c0.00687,0.15647 0.00993,0.30981 0.00993,0.46001v2.19698c0,0.15021 0.03131,0.26911 0.09393,0.35677c0.04964,0.07507 0.13135,0.12516 0.2436,0.15021c0.11302,0.02505 0.23825,0.04383 0.37571,0.05636c0.13745,0.01252 0.28178,0.01558 0.43222,0.00939c0.14967,-0.00626 0.28102,-0.00939 0.39404,-0.00939h1.10804c0.08705,0 0.18098,0.00313 0.28178,0.00939c0.10004,0.00619 0.18709,-0.00321 0.26269,-0.02818h0.2436c0.1008,-0.02505 0.19778,-0.03757 0.29171,-0.03757c0.09393,0 0.18404,-0.01252 0.27185,-0.03757c0.21305,-0.06262 0.40091,-0.14395 0.56356,-0.24413c0.16291,-0.10014 0.30062,-0.23156 0.41313,-0.39427c0.07484,-0.11271 0.13135,-0.23787 0.16876,-0.37556c0.03742,-0.13768 0.07484,-0.29423 0.11302,-0.46948zM416.77596,267.14154c0.01909,0.2003 0.01604,0.36929 -0.00916,0.50698c-0.03742,0.17525 -0.0756,0.3318 -0.11302,0.46948c-0.03742,0.13768 -0.09393,0.26284 -0.16876,0.37556c-0.11251,0.16271 -0.25022,0.29413 -0.41313,0.39427c-0.16265,0.10019 -0.35051,0.18152 -0.56356,0.24413c-0.08782,0.02505 -0.17793,0.03757 -0.27185,0.03757c-0.09393,0 -0.19091,0.01252 -0.29095,0.03757h-0.24436c-0.07484,0.02497 -0.16265,0.03436 -0.26269,0.02818c-0.1008,-0.00626 -0.19396,-0.00939 -0.28178,-0.00939h-1.10804c-0.11302,0 -0.24436,0.00313 -0.39404,0.00939c-0.15044,0.00619 -0.29476,0.00313 -0.43222,-0.00939c-0.13745,-0.01252 -0.26269,-0.03131 -0.37571,-0.05636c-0.11225,-0.02505 -0.19396,-0.07514 -0.2436,-0.15021c-0.06262,-0.08767 -0.09393,-0.20656 -0.09393,-0.35677v-2.19698c0,-0.15021 -0.00305,-0.30355 -0.00993,-0.46001c-0.00611,-0.15655 0.02215,-0.28484 0.08476,-0.38495c0.0504,-0.08767 0.15044,-0.15028 0.30011,-0.18778c0.0252,0 0.0504,0.00313 0.0756,0.00939c0.0252,0.00626 0.04964,-0.00313 0.07484,-0.02818h2.17865c0.30011,0 0.588,0.00626 0.86367,0.01879c0.27542,0.01252 0.51953,0.06885 0.73233,0.16899c0.40015,0.17525 0.67582,0.45688 0.82625,0.84496c0.02495,0.03757 0.03742,0.07512 0.03742,0.11264c0,0.03757 0.01222,0.0814 0.03742,0.1315c0.02495,0.10014 0.04684,0.25035 0.06567,0.45062zM439.97753,270.31467c0.0252,-0.06262 0.03742,-0.16265 0.03742,-0.30011c0,-0.13745 -0.01222,-0.23825 -0.03742,-0.30087v-0.35639c-0.0252,-0.11271 -0.04047,-0.23161 -0.04658,-0.35677c-0.00611,-0.12524 -0.02215,-0.23787 -0.04735,-0.33799c-0.0252,-0.06262 -0.03436,-0.12211 -0.02825,-0.17839c0.00687,-0.05636 -0.00305,-0.11584 -0.02825,-0.17839c-0.06185,-0.2003 -0.12142,-0.39121 -0.17793,-0.57273c-0.05651,-0.18152 -0.1344,-0.35364 -0.23444,-0.51637c-0.18785,-0.30049 -0.40396,-0.5602 -0.64833,-0.77929c-0.2436,-0.21909 -0.54142,-0.40373 -0.89193,-0.55394c-0.11225,-0.03757 -0.22527,-0.07193 -0.33753,-0.10324c-0.11302,-0.03131 -0.22527,-0.05949 -0.33829,-0.08453c-0.10004,-0.01252 -0.19091,-0.02192 -0.27262,-0.02818c-0.08095,-0.00626 -0.17182,-0.02184 -0.27185,-0.04689c-0.0504,-0.01252 -0.10004,-0.01565 -0.15044,-0.00939c-0.04964,0.00626 -0.09393,0.00313 -0.13135,-0.00939h-0.41313c-0.06262,-0.01252 -0.13135,-0.01565 -0.20618,-0.00939c-0.07535,0.00626 -0.15069,0.00939 -0.22604,0.00939h-0.84458c-0.0252,0.02505 -0.06567,0.03131 -0.12218,0.01879c-0.05651,-0.01252 -0.10309,-0.01252 -0.14051,0c-0.06262,0.02505 -0.12524,0.04689 -0.18785,0.06567c-0.06262,0.01879 -0.11302,0.05949 -0.15044,0.12211c-0.04964,0.06254 -0.07484,0.15021 -0.07484,0.26284v0.37556c0,0.16273 -0.00305,0.33172 -0.00993,0.50698c-0.00611,0.17525 -0.00916,0.35051 -0.00916,0.52576v5.23908c0,0.07484 -0.00305,0.15655 -0.00916,0.2436c-0.00611,0.08807 0.00331,0.16342 0.02825,0.22604v0.18709c0,0.08782 0.00305,0.17258 0.00916,0.25353c0.00611,0.08171 0.02215,0.15349 0.04735,0.21611c0.07484,0.15044 0.2184,0.22833 0.43145,0.2352c0.21305,0.00611 0.43222,0.00916 0.65749,0.00916c0.48796,0 0.9828,-0.00305 1.48298,-0.00916c0.50095,-0.00687 0.92629,-0.07865 1.2768,-0.21611c0.46353,-0.18785 0.82931,-0.43833 1.09887,-0.75142c0.2688,-0.31309 0.49713,-0.70102 0.68498,-1.16378c0.0504,-0.1008 0.08782,-0.21305 0.11302,-0.33829c0.0252,-0.12524 0.05651,-0.25047 0.09393,-0.37571v-0.14967c0.02495,-0.08807 0.03742,-0.182 0.03742,-0.28178c0,-0.10004 0.01222,-0.20084 0.03742,-0.30087zM227.69807,271.02867c0.01222,0.14967 -0.06262,0.25658 -0.22527,0.3192c-0.10004,0.0252 -0.21916,0.03742 -0.35662,0.03742h-1.80295c-0.15044,0 -0.29705,-0.00611 -0.44138,-0.01909c-0.14356,-0.01222 -0.24665,-0.06262 -0.30927,-0.14967c-0.0504,-0.12524 -0.05651,-0.23825 -0.01909,-0.33829c0.03767,-0.13745 0.07535,-0.26575 0.11302,-0.38487c0.03742,-0.11913 0.08095,-0.24131 0.13135,-0.36655c0.13745,-0.36273 0.26575,-0.72568 0.38487,-1.08872c0.11913,-0.36303 0.25353,-0.7198 0.4032,-1.07031c0.06262,-0.16281 0.11607,-0.3318 0.1596,-0.50705c0.04429,-0.17525 0.11607,-0.32546 0.21611,-0.45062c0.0252,-0.02505 0.0504,-0.04383 0.0756,-0.05636c0.02444,-0.01252 0.04964,-0.03131 0.07484,-0.05628c0.07484,0 0.13745,0.03123 0.18785,0.09385c0.04964,0.06262 0.09393,0.13455 0.13135,0.21596c0.03742,0.08133 0.06873,0.16899 0.09393,0.26284c0.0252,0.09393 0.0504,0.17212 0.07484,0.23474c0.17564,0.43817 0.33218,0.87627 0.46964,1.31445c0.13796,0.43797 0.28815,0.86976 0.45055,1.29536c0.0252,0.0504 0.03742,0.09698 0.03742,0.14127c0,0.04353 0.01298,0.09087 0.03818,0.14051c0.06262,0.13822 0.10004,0.28178 0.11225,0.43222zM393.38655,271.34787c0.16265,-0.06262 0.23825,-0.16953 0.22527,-0.3192c-0.01222,-0.15044 -0.04964,-0.294 -0.11225,-0.43222c-0.0252,-0.04964 -0.03742,-0.09698 -0.03742,-0.14051c0,-0.04429 -0.01298,-0.09087 -0.03742,-0.14127c-0.16291,-0.4256 -0.31335,-0.85739 -0.45131,-1.29536c-0.13745,-0.43817 -0.294,-0.87627 -0.46887,-1.31445c-0.0252,-0.06262 -0.0504,-0.14081 -0.0756,-0.23474c-0.0252,-0.09385 -0.05575,-0.18152 -0.09393,-0.26284c-0.03742,-0.0814 -0.08095,-0.15334 -0.13135,-0.21596c-0.04964,-0.06262 -0.11225,-0.09385 -0.18785,-0.09385c-0.02444,0.02497 -0.04964,0.04376 -0.07484,0.05628c-0.0252,0.01252 -0.0504,0.03131 -0.07484,0.05636c-0.1008,0.12516 -0.17258,0.27537 -0.21611,0.45062c-0.04378,0.17528 -0.09698,0.3443 -0.1596,0.50705c-0.15044,0.35051 -0.28484,0.70728 -0.40396,1.07031c-0.11913,0.36303 -0.24742,0.72599 -0.38487,1.08872c-0.0504,0.12524 -0.09393,0.24742 -0.13135,0.36655c-0.03742,0.11913 -0.07484,0.24742 -0.11302,0.38487c-0.03742,0.10004 -0.03131,0.21305 0.01909,0.33829c0.06262,0.08705 0.16571,0.13745 0.31004,0.14967c0.14356,0.01298 0.29095,0.01909 0.44138,0.01909h1.80218c0.13745,0 0.25658,-0.01222 0.35662,-0.03742zM115.3189,272.0802c0.04383,0.20007 0.05323,0.38793 0.02818,0.5628v0.11302c-0.03757,0.13745 -0.07514,0.27211 -0.11271,0.40396c-0.03749,0.13135 -0.08759,0.24665 -0.15021,0.34745c-0.15021,0.22527 -0.34738,0.39098 -0.59144,0.49713c-0.24413,0.10691 -0.52271,0.18175 -0.83565,0.22527c-0.31294,0.04429 -0.64466,0.06262 -0.99517,0.05651c-0.35051,-0.00611 -0.71354,-0.00916 -1.0891,-0.00916c-0.11271,0 -0.24413,0.00305 -0.39434,0.00916c-0.15021,0.00611 -0.29728,0.00611 -0.44123,0c-0.14402,-0.00611 -0.27231,-0.0252 -0.38495,-0.05651c-0.11271,-0.03131 -0.19404,-0.07789 -0.24413,-0.14051c-0.06262,-0.08782 -0.09698,-0.21 -0.10324,-0.36655c-0.00626,-0.15655 -0.00939,-0.30927 -0.00939,-0.45971v-2.11222c0,-0.15655 0.03123,-0.28484 0.09385,-0.38564c0.05009,-0.08705 0.15021,-0.14967 0.30041,-0.18709c0.02505,0 0.04696,0.00305 0.06575,0.00916c0.01879,0.00611 0.0407,-0.00305 0.06575,-0.02825h2.12184c0.27537,0 0.54142,0.00611 0.798,0.01909c0.25666,0.01222 0.4914,0.04964 0.70415,0.11225c0.51332,0.17564 0.85756,0.48796 1.03282,0.93927c0.05002,0.10004 0.09698,0.24971 0.14081,0.45055z" data-paper-data="{&quot;isContainerAroundSecondaryText&quot;:true}"></path></g><g data-paper-data="{&quot;isPrimaryText&quot;:true}"><path d="M111.16062,178.33421c-0.92321,-0.38467 -1.92336,-0.15387 -2.53883,0.53854l-19.84907,20.23374l-19.926,-20.31067v0.30774c0,-0.07693 -0.15387,-0.46161 -0.30774,-0.53854l-0.2308,-0.15387c-0.53854,-0.30774 -0.76934,-0.30774 -1.00015,-0.30774c-0.2308,0 -0.46161,0 -0.61547,0.07693c-0.15387,0 -0.2308,0.07693 -0.38467,0.2308c-0.15387,0.07693 -0.38467,0.38467 -0.38467,0.46161c-0.46161,0.2308 -0.46161,0.15387 -0.38467,0.07693l-0.2308,0.15387c-0.15387,0.15387 -0.2308,0.38467 -0.2308,0.61547c-0.07693,0.15387 -0.07693,0.2308 -0.07693,0.30774v51.9307c0,1.23095 1.00015,2.2311 2.30803,2.2311c1.15402,0 2.2311,-1.00015 2.2311,-2.2311v-46.16062l16.07928,16.46395l-5.92395,5.84701c-0.76934,0.84628 -0.76934,2.2311 0,3.15431l7.46263,7.3857c0.46161,0.46161 1.00015,0.69241 1.61562,0.69241c0.61547,0 1.15402,-0.2308 1.61562,-0.69241l7.30876,-7.3857c0.38467,-0.46161 0.69241,-1.00015 0.69241,-1.61562c0,-0.53854 -0.2308,-1.07708 -0.69241,-1.53869l-5.77008,-5.84701l16.07928,-16.38702v46.08369c0,1.23095 1.00015,2.2311 2.2311,2.2311c1.23095,0 2.30803,-1.00015 2.30803,-2.2311v-51.62296c0,-0.92321 -0.53854,-1.61562 -1.38482,-2.00029zM65.46161,179.10356l0.07693,-0.07693h0.07693c0,0 -0.07693,0.07693 -0.15387,0.07693zM68.76978,178.71889l0.07693,0.07693zM93.00411,209.6465l-4.23139,4.30832l-4.23139,-4.30832l4.23139,-4.15446z" data-paper-data="{&quot;glyphName&quot;:&quot;M&quot;,&quot;glyphIndex&quot;:0,&quot;firstGlyphOfWord&quot;:true,&quot;word&quot;:1}" fill-rule="nonzero"></path><path d="M122.39304,208.72329l0.30774,2.84657l0.69241,2.38497l0.76934,2.07723l1.23095,3.07737l1.38482,2.30803l1.69256,2.2311l1.92336,2.30803l2.30803,1.84642l2.15416,1.84642l2.30803,1.30788l3.30818,1.46175l2.00029,0.61547l2.6927,0.69241l2.76964,0.38467l2.4619,0.07693l2.61577,-0.07693l2.4619,-0.46161l2.38497,-0.46161l3.15431,-1.07708l2.07723,-1.07708l2.53883,-1.30788l2.30803,-1.76949l2.15416,-1.92336l2.00029,-2.2311l1.46175,-2.07723c0.2308,-0.07693 0.38467,-0.30774 0.46161,-0.46161l1.23095,-2.30803l1.38482,-2.84657l0.69241,-2.15416l0.61547,-2.6927l0.30774,-2.61577l0.15387,-2.4619v-24.23433c0,-1.23095 -1.00015,-2.30803 -2.2311,-2.30803c-1.23095,0 -2.2311,1.07708 -2.2311,2.30803v24.00352c0,0.69241 -0.07693,1.53869 -0.07693,2.2311c-0.07693,0.69241 -0.30774,1.38482 -0.38467,2.07723l-0.46161,2.30803v-0.07693c-0.2308,0.76934 -0.61547,1.53869 -0.84628,2.30803l0.07693,-0.07693c-0.2308,0.69241 -0.69241,1.46175 -1.00015,2.2311v-0.07693l-1.23095,2.15416l0.07693,-0.07693c-0.46161,0.69241 -1.07708,1.38482 -1.46175,2.00029v-0.07693l-1.61562,1.84642l-1.84642,1.69256h0.07693l-2.07723,1.46175l0.07693,-0.07693l-2.07723,1.23095h0.07693l-2.15416,1.00015l0.07693,-0.07693l-2.2311,0.76934l-2.2311,0.53854h0.07693l-2.30803,0.30774h0.07693l-2.15416,0.15387c-0.69241,0 -1.46175,-0.07693 -2.15416,-0.07693l-2.2311,-0.30774c-0.76934,-0.15387 -1.38482,-0.46161 -2.07723,-0.61547l-2.2311,-0.69241l0.07693,0.07693c-0.76934,-0.30774 -1.53869,-0.76934 -2.30803,-1.07708h0.07693l-2.15416,-1.23095l0.07693,0.07693l-2.00029,-1.46175h0.07693c-0.53854,-0.46161 -1.23095,-1.15402 -1.76949,-1.61562l-1.69256,-1.92336v0.07693c-0.46161,-0.61547 -1.07708,-1.30788 -1.53869,-2.00029l0.07693,0.07693l-1.15402,-2.15416v0.07693l-1.07708,-2.15416l0.07693,0.07693l-0.76934,-2.30803l-0.46161,-2.15416v0.07693l-0.30774,-2.2311v0.07693l-0.15387,-2.38497v-23.92659c0,-1.07708 -0.76934,-2.15416 -1.84642,-2.38497c-1.38482,-0.15387 -2.61577,1.07708 -2.61577,2.30803l-0.07693,18.31038v5.92395z" data-paper-data="{&quot;glyphName&quot;:&quot;U&quot;,&quot;glyphIndex&quot;:1,&quot;word&quot;:1}" fill-rule="nonzero"></path><path d="M210.55982,178.10341h-20.07987c-1.23095,0 -2.2311,1.00015 -2.2311,2.2311c0,1.30788 1.00015,2.2311 2.2311,2.2311h17.84877v49.39186c0,1.23095 0.92321,2.2311 2.2311,2.2311c1.15402,0 2.2311,-1.00015 2.2311,-2.2311v-51.62296c0,-1.23095 -1.07708,-2.2311 -2.2311,-2.2311zM230.56276,178.10341h-14.61753c-1.30788,0 -2.2311,1.00015 -2.2311,2.2311c0,1.30788 0.92321,2.2311 2.2311,2.2311h14.61753c1.23095,0 2.2311,-0.92321 2.2311,-2.2311c0,-1.23095 -1.00015,-2.2311 -2.2311,-2.2311z" data-paper-data="{&quot;glyphName&quot;:&quot;T&quot;,&quot;glyphIndex&quot;:2,&quot;word&quot;:1}" fill-rule="nonzero"></path><path d="M349.11861,204.03029l-23.92659,-23.92659c-2.00029,-1.92336 -4.61606,-2.92351 -7.1549,-2.92351c-2.53883,0 -5.1546,1.00015 -7.07796,2.92351l-23.84965,23.92659c-0.46161,0.38467 -0.76934,1.00015 -0.76934,1.69256c0,0.53854 0.2308,1.07708 0.69241,1.53869c5.92395,6.00088 17.92571,17.92571 23.92659,23.92659c1.84642,1.76949 4.61606,3.00044 7.07796,3.00044c2.61577,0 5.1546,-1.00015 7.1549,-3.00044l9.23212,-9.15519l5.00073,4.9238c0.46161,0.46161 1.00015,0.69241 1.53869,0.69241c0.53854,0 1.15402,-0.2308 1.61562,-0.69241c0.92321,-0.84628 0.92321,-2.2311 0,-3.15431l-5.00073,-5.00073l11.61709,-11.54015c0.46161,-0.46161 0.61547,-1.00015 0.61547,-1.53869c0,-0.69241 -0.2308,-1.30788 -0.69241,-1.69256zM344.34868,205.72285l-9.92453,9.92453l-4.07752,-4.00059c-0.84628,-0.84628 -2.2311,-0.84628 -3.15431,0c-0.92321,0.84628 -0.92321,2.30803 0,3.15431l4.07752,4.00059l-9.23212,9.23212c-1.15402,1.15402 -2.53883,1.69256 -4.00059,1.69256c-1.46175,0 -2.92351,-0.53854 -3.92365,-1.69256l-22.3879,-22.31097c6.53942,-6.61636 15.92541,-15.92541 22.3879,-22.46483c1.00015,-1.00015 2.61577,-1.61562 3.92365,-1.61562c1.46175,0 2.92351,0.61547 4.00059,1.61562z" data-paper-data="{&quot;glyphName&quot;:&quot;Q&quot;,&quot;glyphIndex&quot;:4,&quot;word&quot;:1}" fill-rule="nonzero"></path><path d="M363.35147,229.72637h-1.46175c-1.30788,0 -2.2311,1.00015 -2.2311,2.2311c0,1.23095 0.92321,2.2311 2.2311,2.2311h7.53957c1.23095,0 2.2311,-1.00015 2.2311,-2.2311c0,-1.23095 -1.00015,-2.2311 -2.2311,-2.2311h-1.53869v-47.16077h1.53869c1.23095,0 2.2311,-0.92321 2.2311,-2.2311c0,-1.23095 -1.00015,-2.2311 -2.2311,-2.2311h-7.53957c-1.30788,0 -2.2311,1.00015 -2.2311,2.2311c0,1.30788 0.92321,2.2311 2.2311,2.2311h1.46175z" data-paper-data="{&quot;glyphName&quot;:&quot;I&quot;,&quot;glyphIndex&quot;:5,&quot;word&quot;:1}" fill-rule="nonzero"></path><path d="M411.58932,206.41526l-27.15783,-27.61944c-0.61547,-0.69241 -1.53869,-0.76934 -2.4619,-0.46161c-0.76934,0.38467 -1.30788,1.07708 -1.30788,2.00029v51.62296c0,1.23095 0.92321,2.2311 2.2311,2.2311c1.23095,0 2.2311,-1.00015 2.2311,-2.2311v-46.16062l23.23418,23.84965c0.92321,0.76934 2.30803,0.84628 3.15431,-0.07693c0.84628,-0.76934 0.76934,-2.30803 0.07693,-3.15431zM416.97472,178.10341c-1.30788,0 -2.30803,1.00015 -2.30803,2.2311v51.62296c0,1.23095 1.00015,2.2311 2.30803,2.2311c1.15402,0 2.2311,-1.00015 2.2311,-2.2311v-51.62296c0,-1.23095 -1.07708,-2.2311 -2.2311,-2.2311z" data-paper-data="{&quot;glyphName&quot;:&quot;N&quot;,&quot;glyphIndex&quot;:6,&quot;word&quot;:1}" fill-rule="nonzero"></path><path d="M430.1305,233.95776c0.2308,0.15387 0.53854,0.2308 0.92321,0.2308c0.84628,0 1.53869,-0.46161 2.2311,-1.46175l23.61885,-47.39157l23.84965,47.54544c0.61547,1.07708 2.00029,1.61562 3.00044,1.07708c1.00015,-0.46161 1.61562,-1.61562 1.00015,-3.00044c-8.53971,-16.92556 -17.31023,-34.6974 -25.84995,-51.69989c-0.38467,-0.61547 -1.15402,-1.15402 -2.00029,-1.15402c-0.69241,0 -1.61562,0.46161 -2.00029,1.15402l-25.84995,51.69989c-0.53854,1.38482 -0.07693,2.53883 1.07708,3.00044z" data-paper-data="{&quot;glyphName&quot;:&quot;A&quot;,&quot;glyphIndex&quot;:7,&quot;lastGlyphOfWord&quot;:true,&quot;word&quot;:1}" fill-rule="nonzero"></path><g data-paper-data="{&quot;fillRule&quot;:&quot;evenodd&quot;,&quot;fillRuleOriginal&quot;:&quot;evenodd&quot;,&quot;isIcon&quot;:true,&quot;iconStyle&quot;:&quot;icon-in-text&quot;,&quot;selectedEffects&quot;:{&quot;container&quot;:&quot;&quot;,&quot;transformation&quot;:&quot;&quot;,&quot;pattern&quot;:&quot;&quot;},&quot;bounds&quot;:{&quot;x&quot;:227.49232214576938,&quot;y&quot;:178.103,&quot;width&quot;:56.170574306651645,&quot;height&quot;:56.085999999999984},&quot;iconType&quot;:&quot;icon&quot;,&quot;rawIconId&quot;:&quot;15578&quot;,&quot;combineTerms&quot;:&quot;Perfect &quot;,&quot;suitableAsStandaloneIcon&quot;:true}" fill-rule="evenodd"><path d="M229.716,234.189c-0.38467,0 -0.69233,-0.077 -0.923,-0.231c-1.154,-0.462 -1.615,-1.616 -1.077,-3.001l25.85,-51.7c0.385,-0.692 1.308,-1.154 2,-1.154c0.847,0 1.616,0.539 2.001,1.154c8.539,17.003 17.31,34.775 25.85,51.7c0.615,1.385 0,2.539 -1,3.001c-0.286,0.154 -0.603,0.22 -0.925,0.21l-51.774,0.021zM263.53998,204.83178c-4.85572,6.87221 -9.71301,13.74431 -14.56918,20.61574c-1.05399,-1.05433 -2.10798,-2.10899 -3.16197,-3.16298c-1.84215,-1.84215 -3.68318,-3.68431 -5.52534,-5.52646c-2.6897,-2.6897 -6.85672,1.47732 -4.16814,4.16814c3.20048,3.19935 6.39871,6.39871 9.59806,9.59806c2.31364,2.31364 4.54645,3.27681 6.74671,0.1639c5.38951,-7.62681 10.78014,-15.25362 16.16852,-22.88043c2.20026,-3.11291 -2.91422,-6.05183 -5.08866,-2.97596zM251.08933,227.35668c0.00191,0.01381 -0.08229,-0.02335 -0.25842,-0.15301c0.16827,0.07431 0.2564,0.13909 0.25842,0.15301z" data-paper-data="{&quot;glyphName&quot;:&quot;A&quot;,&quot;glyphIndex&quot;:3,&quot;word&quot;:1,&quot;isPathIcon&quot;:true}"></path></g></g></g></g></svg>